<?xml version="1.0" standalone="no"?>
<!DOCTYPE svg PUBLIC "-//W3C//DTD SVG 20010904//EN"
 "http://www.w3.org/TR/2001/REC-SVG-20010904/DTD/svg10.dtd">
<svg version="1.0" xmlns="http://www.w3.org/2000/svg"
 width="654.000000pt" height="654.000000pt" viewBox="0 0 654.000000 654.000000"
 preserveAspectRatio="xMidYMid meet">
<metadata>
Created by potrace 1.14, written by Peter Selinger 2001-2017
</metadata>
<g transform="translate(0.000000,654.000000) scale(0.100000,-0.100000)"
fill="#000000" stroke="none">
<path d="M1 3270 c0 -3222 1 -3270 20 -3270 18 0 19 9 19 159 0 88 -4 162 -9
165 -5 4 -10 81 -11 172 -1 138 2 168 15 178 12 9 15 47 15 239 1 125 3 227 5
227 2 0 35 -40 73 -89 51 -67 72 -87 80 -79 7 7 15 8 19 3 5 -4 2 -10 -5 -12
-6 -3 -12 -11 -12 -19 0 -15 106 -167 121 -172 16 -6 9 13 -12 31 -16 15 -18
21 -9 33 18 20 36 17 55 -8 13 -19 18 -21 35 -10 11 6 30 12 42 12 21 0 21 0
2 -16 -18 -14 -18 -15 6 -8 50 13 127 37 224 70 54 19 100 34 103 34 13 0 -8
-36 -59 -102 -31 -40 -93 -121 -137 -180 l-80 -107 64 -93 c36 -51 72 -106 81
-122 9 -15 38 -59 65 -97 51 -72 50 -78 -16 -53 -22 8 -58 21 -80 28 -22 8
-85 30 -140 50 -115 41 -135 44 -135 17 0 -10 -7 -22 -16 -25 -23 -9 -27 -8
-20 10 12 31 -16 1 -105 -114 -82 -107 -88 -117 -68 -120 17 -3 36 10 74 50
50 51 52 53 79 39 20 -9 25 -16 17 -24 -8 -8 -14 -6 -23 6 -15 19 -19 16 -67
-36 l-35 -37 25 0 c17 0 30 8 38 24 8 14 22 24 36 24 14 0 27 -9 34 -24 l11
-24 529 0 c414 0 531 3 535 13 5 9 7 9 12 0 9 -20 434 -18 434 1 0 7 -13 16
-30 19 -24 5 -30 12 -30 32 0 21 -5 25 -29 25 -26 0 -30 4 -33 32 -3 37 -23
46 -52 25 -15 -11 -17 -17 -7 -35 6 -12 20 -22 31 -22 12 0 22 -9 26 -24 3
-13 15 -28 27 -34 21 -9 21 -10 3 -17 -13 -6 -21 -3 -28 9 -7 13 -17 16 -35
11 -23 -5 -24 -3 -21 27 3 32 1 33 -30 30 -27 -2 -32 1 -32 21 0 28 17 47 42
47 12 0 18 8 18 24 0 19 7 26 30 31 38 8 41 41 5 57 -32 14 -31 51 2 56 14 2
20 8 16 18 -3 8 0 21 6 28 16 19 -5 32 -24 16 -8 -7 -21 -10 -29 -7 -10 4 -16
-2 -18 -16 -4 -27 -30 -29 -38 -2 -3 11 -12 19 -20 19 -8 -1 -27 -2 -42 -3
-20 -1 -26 -5 -22 -16 4 -10 0 -15 -11 -15 -12 0 -15 5 -10 19 5 18 0 20 -47
23 l-53 3 -17 51 c-9 28 -23 80 -30 115 -13 66 -53 129 -81 129 -7 0 -24 -11
-37 -25 -31 -33 -37 -24 -11 18 18 30 19 36 6 47 -21 18 -48 5 -40 -20 5 -16
2 -20 -18 -20 -14 0 -31 7 -38 16 -12 14 -10 19 14 39 l28 22 -175 173 c-96
96 -179 184 -185 197 -12 27 -36 30 -45 6 -7 -18 9 -33 37 -33 24 0 21 -27 -4
-41 -24 -12 -39 1 -39 34 0 9 -7 17 -15 17 -22 0 -18 31 5 37 11 3 20 12 20
21 0 18 -76 122 -89 122 -8 0 -50 60 -59 85 -3 6 -14 26 -27 45 -105 166 -136
217 -175 297 -27 55 -51 93 -60 93 -8 0 -39 -9 -68 -20 -30 -11 -52 -15 -52
-10 0 6 18 35 40 64 22 29 40 58 40 63 0 6 -18 55 -39 109 -21 55 -47 124 -57
154 -9 30 -20 60 -24 65 -4 6 -10 21 -13 35 -2 14 -17 70 -31 124 -44 164 -85
400 -101 583 -9 104 -6 489 5 613 14 169 67 452 105 570 8 25 19 65 24 90 10
47 57 187 85 252 20 47 20 48 -4 48 -11 0 -24 8 -27 17 -13 32 -87 98 -108 95
-17 -2 -21 2 -20 25 0 23 -5 29 -27 31 -23 3 -28 -1 -28 -17 0 -14 -6 -21 -20
-21 -26 0 -27 36 -1 43 11 2 21 15 23 28 2 18 10 25 31 27 20 3 27 9 27 25 -1
54 -37 61 -62 11 -16 -34 -32 -36 -36 -6 -2 16 4 29 17 39 27 18 27 39 0 53
-24 14 -22 53 4 58 13 3 17 -3 17 -23 0 -14 6 -28 14 -31 23 -9 59 15 53 35
-3 14 2 18 23 18 23 0 26 -4 22 -24 -3 -15 -10 -22 -18 -19 -8 3 -20 -6 -29
-24 -20 -38 -20 -39 14 -51 16 -6 31 -19 34 -30 7 -25 33 -35 52 -19 24 20 0
53 -32 45 -23 -5 -25 -4 -19 17 3 13 6 29 6 36 0 6 11 12 24 12 24 0 41 24 30
42 -3 5 -17 13 -30 18 -13 5 -24 16 -24 24 0 19 -34 38 -54 30 -9 -3 -16 -16
-16 -29 0 -33 -44 -23 -46 11 -2 20 2 23 21 18 19 -5 23 -1 28 23 3 15 2 32
-3 36 -14 15 -51 -4 -63 -31 l-11 -27 -4 27 c-5 37 26 79 53 72 11 -4 26 -13
33 -23 7 -9 23 -16 35 -16 15 0 22 -6 22 -19 0 -29 31 -44 51 -25 14 15 14 18
0 32 -9 9 -16 20 -16 26 0 14 23 14 36 1 8 -8 19 -7 38 1 21 10 34 10 60 1 49
-18 72 -15 94 13 21 26 34 32 29 14 -1 -6 6 -16 16 -22 15 -10 21 -8 32 7 17
23 11 36 -16 36 -22 0 -24 11 -7 28 18 18 35 15 41 -8 7 -26 23 -26 37 0 12
23 6 40 -16 40 -22 0 -16 27 11 48 32 25 32 57 1 77 -35 23 -41 45 -12 45 15
0 27 -9 35 -26 15 -34 35 -26 38 17 2 19 7 72 12 119 15 132 14 151 -7 148
-11 -2 -18 4 -20 20 -4 24 7 29 26 10 9 -9 12 -4 12 24 0 31 -4 37 -32 48 -18
7 -42 16 -53 20 -160 62 -216 80 -225 75 -6 -4 -17 0 -23 8 -11 14 -39 26
-205 88 -61 23 -74 41 -36 47 10 2 61 16 112 33 51 16 100 29 108 29 8 0 14 5
14 10 0 6 7 10 15 10 9 0 12 6 9 18 -5 15 -4 14 10 -2 14 -18 19 -18 58 -6 24
7 52 15 63 17 11 2 63 16 115 32 l95 28 7 49 c3 27 7 111 7 187 1 75 4 137 9
138 4 0 48 1 99 1 86 1 123 -8 123 -32 0 -20 102 -158 120 -163 13 -3 20 -13
20 -29 0 -21 5 -24 35 -25 21 -1 35 4 34 10 -3 28 2 37 22 37 17 0 20 -5 16
-20 -4 -17 -2 -20 14 -15 10 3 28 8 39 11 11 3 20 12 20 20 0 8 9 14 19 14 11
0 23 5 26 10 10 16 28 12 21 -5 -3 -9 0 -15 8 -15 21 0 26 12 11 27 -19 19
-19 43 -1 43 19 0 31 39 17 53 -9 9 -17 8 -31 -1 -11 -6 -22 -12 -25 -12 -9 0
-5 39 5 45 15 9 2 25 -20 25 -10 0 -22 5 -25 11 -5 7 31 10 118 7 99 -2 123
-5 115 -15 -16 -20 -1 -43 27 -43 27 0 35 26 13 48 -9 9 1 11 40 9 50 -2 66
-10 40 -20 -9 -3 -10 -8 -3 -15 14 -15 55 -4 49 13 -7 18 19 22 118 17 l87 -4
-28 -24 c-18 -15 -35 -22 -46 -18 -15 6 -16 3 -11 -22 4 -19 1 -42 -10 -63
-16 -32 -16 -35 0 -46 9 -7 16 -19 16 -27 0 -17 -24 -41 -32 -33 -3 3 -11 -1
-17 -9 -17 -20 -4 -56 20 -56 10 0 19 -4 19 -10 0 -5 -4 -10 -10 -10 -5 0 -10
-6 -10 -14 0 -8 -7 -16 -15 -20 -11 -4 -15 1 -15 19 0 28 -12 38 -35 29 -12
-5 -16 -15 -13 -34 4 -25 2 -27 -17 -20 -41 16 -73 -23 -40 -50 11 -9 27 -5
80 21 36 18 68 36 71 41 3 4 13 8 23 8 9 0 26 8 37 18 11 11 33 23 49 29 19 6
31 18 33 31 4 24 21 29 39 11 6 -6 16 -9 21 -5 13 8 -26 86 -43 86 -11 0 -25
20 -25 36 0 3 11 9 25 14 31 12 41 35 25 55 -20 24 -40 18 -52 -16 -12 -35
-41 -36 -46 -2 -2 16 3 22 20 25 29 4 36 37 12 55 -15 11 -10 13 41 13 56 0
57 -1 42 -18 -23 -25 -21 -37 8 -50 23 -11 27 -9 34 11 5 13 5 27 -1 35 -8 9
-1 12 29 12 37 0 40 -2 36 -24 -6 -29 5 -36 35 -25 18 7 21 14 16 34 l-6 26
176 -2 c163 -2 207 -8 155 -22 -28 -7 -19 -31 13 -35 20 -2 25 1 24 20 -1 18
5 24 28 26 27 3 28 2 24 -27 -4 -25 -2 -28 13 -21 9 5 19 7 21 4 6 -6 114 20
153 37 22 10 128 14 417 17 407 4 579 -5 723 -37 22 -5 85 -19 140 -32 88 -19
161 -39 310 -84 22 -6 53 -17 68 -23 16 -7 33 -12 38 -12 20 0 344 -142 389
-171 8 -5 22 -12 30 -16 35 -16 357 -221 387 -247 7 -6 36 -29 64 -51 28 -22
78 -65 111 -95 33 -30 66 -59 74 -63 9 -5 39 -33 69 -63 29 -30 58 -54 65 -54
6 0 8 4 5 10 -10 15 14 50 34 50 12 0 21 10 25 25 4 15 17 30 31 35 15 6 25
17 25 29 0 13 9 20 29 24 21 4 30 13 33 29 2 19 9 23 43 24 22 1 65 9 95 18
30 9 69 16 86 16 27 0 47 16 143 116 61 63 111 120 111 126 0 14 -156 294
-182 326 -20 23 -1 23 48 -2 27 -14 105 -52 174 -86 l125 -61 58 63 57 62 0
83 0 83 -3270 0 -3270 0 1 -3270z m956 3208 c-3 -7 -5 -2 -5 12 0 14 2 19 5
13 2 -7 2 -19 0 -25z m303 -69 c0 -6 -4 -7 -10 -4 -5 3 -10 11 -10 16 0 6 5 7
10 4 6 -3 10 -11 10 -16z m-220 1 c0 -5 -4 -10 -10 -10 -5 0 -10 5 -10 10 0 6
5 10 10 10 6 0 10 -4 10 -10z m775 -30 c9 -15 -4 -50 -19 -50 -20 0 -37 25
-30 44 7 18 39 22 49 6z m-731 -25 c3 -8 1 -15 -4 -15 -6 0 -10 7 -10 15 0 8
2 15 4 15 2 0 6 -7 10 -15z m792 -36 c8 -14 -21 -44 -34 -35 -14 8 -3 46 14
46 7 0 16 -5 20 -11z m-56 -83 c-18 -23 -50 -20 -50 4 0 27 31 43 49 25 12
-11 12 -17 1 -29z m-1770 -457 c0 -6 -4 -7 -10 -4 -5 3 -10 11 -10 16 0 6 5 7
10 4 6 -3 10 -11 10 -16z m5550 -4 c0 -20 -5 -25 -25 -25 -33 0 -35 37 -2 43
12 2 23 5 25 6 1 0 2 -10 2 -24z m-5200 5 c0 -5 -4 -10 -10 -10 -5 0 -10 5
-10 10 0 6 5 10 10 10 6 0 10 -4 10 -10z m113 -17 c-7 -2 -19 -2 -25 0 -7 3
-2 5 12 5 14 0 19 -2 13 -5z m-398 -23 c3 -5 1 -10 -4 -10 -6 0 -11 5 -11 10
0 6 2 10 4 10 3 0 8 -4 11 -10z m463 -18 c2 -7 -2 -10 -12 -6 -9 3 -16 11 -16
16 0 13 23 5 28 -10z m4967 8 c-10 -16 5 -50 21 -50 8 0 14 -10 14 -25 0 -35
-28 -33 -32 3 -2 21 -9 28 -30 30 -27 3 -38 28 -21 45 10 11 55 8 48 -3z
m-5366 -61 c-9 -17 -8 -25 5 -37 14 -14 20 -15 37 -4 27 17 34 10 17 -17 -17
-27 -21 -27 -59 7 -24 22 -30 33 -25 50 4 12 14 22 22 22 12 0 13 -4 3 -21z
m144 -85 c8 -9 -36 -44 -46 -37 -5 3 0 13 10 23 20 21 27 23 36 14z m55 -75
c-29 -7 -28 -7 -22 18 6 20 7 20 25 5 19 -17 19 -17 -3 -23z m77 -39 c18 -20
17 -20 -13 -20 -25 0 -29 3 -25 20 3 11 9 20 13 20 4 0 15 -9 25 -20z m65 -67
c0 -13 -3 -13 -15 -3 -8 7 -15 16 -15 21 0 5 7 6 15 3 8 -4 15 -13 15 -21z
m-430 -163 c9 -16 8 -20 -5 -20 -8 0 -15 2 -15 4 0 2 -3 11 -6 20 -9 23 13 20
26 -4z m240 -3925 c0 -8 -4 -15 -10 -15 -5 0 -10 7 -10 15 0 8 5 15 10 15 6 0
10 -7 10 -15z m-42 -70 c3 -19 2 -19 -12 -2 -14 18 -14 18 -19 0 -4 -14 -5
-13 -6 5 -1 30 32 27 37 -3z m-148 -5 c0 -5 -2 -10 -4 -10 -3 0 -8 5 -11 10
-3 6 -1 10 4 10 6 0 11 -4 11 -10z m276 -7 c16 -21 18 -59 4 -68 -5 -3 -10
-17 -10 -30 0 -17 -6 -25 -22 -27 -12 -2 -28 -14 -35 -28 -6 -13 -21 -28 -33
-32 -11 -4 -25 -19 -30 -33 -13 -33 -30 -24 -63 34 -31 56 -32 61 -13 61 16 0
31 34 21 50 -8 14 -38 13 -53 -2 -9 -9 -12 -8 -12 5 0 9 5 17 11 17 6 0 8 8 5
18 -4 13 0 17 19 17 14 0 23 -4 21 -10 -5 -16 13 -45 29 -45 8 0 28 14 45 30
17 17 37 30 44 30 8 0 19 7 26 15 16 20 30 19 46 -2z m324 -197 c0 -11 -19
-15 -25 -6 -3 5 1 10 9 10 9 0 16 -2 16 -4z m-326 -161 c6 -17 4 -18 -18 -9
-20 8 -21 24 -2 24 8 0 16 -7 20 -15z m701 -205 c0 -8 -10 -16 -22 -18 -22 -3
-32 16 -16 32 12 11 38 2 38 -14z m465 -370 c0 -21 -24 -28 -35 -10 -8 14 3
30 21 30 8 0 14 -9 14 -20z m-50 -53 c0 -6 -7 -18 -15 -27 -14 -15 -14 -18 0
-30 13 -11 18 -10 29 5 8 11 20 16 30 12 25 -10 19 -35 -11 -51 -25 -13 -26
-15 -10 -21 16 -7 15 -9 -9 -21 -14 -8 -37 -14 -50 -14 -17 0 -28 -8 -35 -26
l-10 -27 -22 20 c-12 11 -27 19 -34 16 -17 -6 -27 35 -13 52 19 23 40 18 40
-9 0 -20 4 -23 23 -18 24 6 37 20 37 40 0 10 -4 9 -16 -3 -15 -14 -17 -14 -30
2 -22 29 -16 48 26 86 38 34 70 40 70 14z m110 8 c15 -17 5 -35 -20 -35 -22 0
-33 23 -17 39 15 15 22 14 37 -4z m-1384 -133 c-12 -11 -18 7 -10 30 l8 23 4
-23 c2 -13 1 -26 -2 -30z"/>
<path d="M365 1216 c-21 -15 -15 -43 11 -53 24 -9 46 24 33 48 -12 23 -19 23
-44 5z"/>
<path d="M306 1154 c-12 -12 -13 -20 -6 -35 12 -22 15 -23 41 -9 24 14 24 36
0 50 -15 7 -23 6 -35 -6z"/>
<path d="M251 1101 c-7 -5 -11 -17 -9 -27 4 -25 51 -26 56 -2 4 20 -29 40 -47
29z"/>
<path d="M1373 6503 c-7 -2 -13 -13 -13 -24 0 -22 45 -28 52 -6 11 29 -8 43
-39 30z"/>
<path d="M2323 6503 c-7 -3 -13 -13 -13 -24 0 -14 7 -19 25 -19 15 0 25 6 25
14 0 18 -22 35 -37 29z"/>
<path d="M2190 6479 c0 -15 5 -20 22 -17 34 5 37 38 4 38 -20 0 -26 -5 -26
-21z"/>
<path d="M2984 6448 c-16 -13 -36 -31 -44 -40 -8 -9 -66 -42 -128 -73 -388
-194 -720 -507 -976 -922 -17 -28 -39 -48 -63 -58 -75 -32 -113 -88 -113 -169
0 -34 -15 -76 -66 -181 -36 -75 -69 -148 -74 -161 -9 -23 -11 -24 -37 -11
-131 66 -565 177 -696 177 -78 0 -131 -84 -162 -260 -7 -41 -23 -111 -34 -155
-89 -332 -126 -679 -118 -1105 l4 -255 35 -100 c55 -158 112 -284 230 -515 61
-118 115 -220 120 -226 5 -8 51 -12 126 -13 131 -2 165 -8 158 -26 -11 -30
-28 -306 -22 -372 13 -163 29 -198 39 -88 4 37 19 95 36 136 31 73 101 199
112 199 26 1 24 -231 -2 -400 -30 -188 -28 -312 4 -416 32 -104 126 -294 145
-294 4 0 5 39 4 87 -4 95 19 208 60 300 l21 48 8 -59 c13 -91 56 -201 120
-311 69 -116 83 -157 84 -242 0 -35 1 -63 2 -63 1 0 12 10 23 23 30 31 49 81
63 165 l13 73 48 -70 c41 -61 94 -112 233 -226 l25 -21 -17 -54 c-13 -43 -16
-96 -16 -243 1 -181 6 -220 34 -238 14 -9 125 34 184 70 l48 30 6 -22 c4 -19
11 -21 45 -18 39 3 147 51 173 76 10 9 19 11 30 4 26 -16 83 14 154 81 36 33
71 60 78 60 8 0 43 39 78 87 36 48 67 81 69 75 2 -7 -6 -41 -17 -77 -25 -78
-25 -77 -3 -66 27 13 113 39 157 47 22 3 46 11 53 17 8 6 16 6 25 -1 6 -5 23
-12 37 -14 21 -4 19 -6 -19 -17 -34 -10 -46 -10 -51 -1 -6 9 -9 9 -15 0 -14
-23 11 -31 61 -19 27 6 57 12 66 13 10 1 21 5 24 9 4 4 17 7 28 7 12 0 45 15
73 34 61 40 92 51 186 65 38 5 72 12 75 15 3 4 -9 21 -26 39 -38 39 -40 56 -9
85 22 21 26 21 63 9 27 -10 40 -21 42 -35 4 -27 18 -28 32 -3 5 11 20 21 32
23 18 2 23 9 23 31 -1 23 14 42 76 98 81 73 99 82 99 49 0 -21 23 -73 43 -98
8 -11 13 -9 23 10 8 13 13 30 14 38 0 9 8 31 18 50 114 214 176 340 188 381 8
27 19 49 24 49 9 0 8 -17 -11 -169 -5 -41 -8 -76 -6 -78 11 -10 163 195 207
279 50 96 65 112 76 84 8 -22 -26 -112 -52 -137 -13 -12 -24 -30 -23 -38 0
-11 4 -9 11 7 6 12 14 22 18 22 8 0 -9 -55 -23 -77 -4 -6 -4 -19 -1 -27 7 -18
-13 -103 -29 -124 -5 -6 -7 -12 -3 -12 3 0 -5 -18 -19 -41 -21 -32 -24 -43
-14 -55 9 -11 9 -24 1 -52 -37 -124 -62 -217 -137 -515 -46 -183 -91 -359
-100 -392 -38 -134 -39 -153 -9 -124 8 9 17 36 19 60 2 24 24 100 49 169 38
104 137 430 166 545 7 27 53 194 66 238 6 18 34 24 34 7 0 -10 -38 -160 -66
-257 -9 -32 -56 -177 -104 -323 -112 -335 -118 -351 -131 -373 -11 -20 -3 -39
9 -21 4 6 27 37 52 70 45 59 111 153 140 199 113 180 250 430 250 454 0 7 -14
30 -30 52 -51 64 -61 189 -17 216 7 4 19 23 26 41 11 26 11 38 1 63 -16 39 0
101 35 131 30 26 41 78 26 117 -16 36 10 105 52 141 27 24 29 29 23 80 -3 30
-6 60 -6 65 -3 26 37 149 50 155 8 5 42 16 75 25 102 29 149 65 267 208 43 51
88 132 88 157 0 9 11 44 25 78 32 79 35 184 6 240 -11 20 -34 73 -52 117 -33
82 -87 166 -103 162 -9 -3 -30 -70 -42 -132 l-5 -30 15 25 c8 14 18 46 21 73
4 26 9 47 12 47 11 0 33 -36 66 -105 70 -145 80 -213 40 -257 -23 -26 -28 -23
-43 25 -21 72 -50 120 -102 169 l-50 47 20 68 c21 73 49 176 97 358 32 120 62
229 98 349 7 26 21 45 40 55 63 34 69 44 69 100 0 51 1 53 37 68 101 43 120
65 126 146 4 55 7 61 73 135 38 42 116 136 175 207 59 72 125 151 148 177 41
46 41 48 59 180 56 417 65 940 19 1120 -12 47 -42 68 -96 68 -55 0 -90 -31
-221 -194 -129 -161 -170 -217 -221 -303 -33 -55 -85 -114 -221 -246 -178
-174 -231 -242 -230 -299 1 -14 8 -2 20 31 31 85 79 143 153 182 20 10 37 24
37 30 0 13 128 138 134 131 3 -2 20 6 38 19 22 16 11 -1 -37 -54 -38 -42 -77
-77 -86 -77 -9 0 -22 -7 -30 -16 -11 -13 -9 -14 17 -9 16 4 35 9 43 11 26 8
135 -18 178 -43 50 -29 103 -86 103 -111 0 -9 -5 -24 -10 -32 -8 -12 -10 -11
-10 7 0 14 -17 33 -51 58 -85 61 -218 102 -146 44 46 -36 30 -124 -32 -176
-33 -28 -140 -33 -165 -7 -15 14 -18 14 -37 -8 l-20 -23 5 30 c3 17 10 55 15
84 6 30 9 57 7 59 -4 3 -9 -1 -46 -47 -43 -52 -57 -158 -31 -235 16 -45 71
-109 121 -141 36 -23 109 -41 144 -36 11 2 16 -2 11 -9 -10 -15 -100 -11 -150
8 -68 25 -128 94 -158 182 l-16 45 0 -60 c-1 -44 2 -56 10 -45 8 12 9 10 7
-10 -2 -14 -9 -24 -15 -23 -13 3 -33 -48 -33 -81 1 -20 2 -19 15 4 l14 25 1
-26 c0 -30 -23 -92 -32 -84 -9 9 -28 -79 -28 -128 0 -40 5 -50 44 -89 56 -54
66 -88 37 -124 -22 -28 -27 -44 -13 -44 5 0 14 12 21 26 17 39 22 25 8 -24 -7
-24 -16 -40 -20 -36 -19 19 -4 -38 19 -71 21 -32 24 -42 15 -62 -7 -16 -7 -23
0 -23 13 0 1 -62 -14 -71 -6 -5 -2 -20 12 -43 19 -31 21 -40 11 -73 -10 -36
-49 -181 -90 -338 -52 -198 -80 -303 -88 -330 -9 -30 -9 -30 -42 39 -87 183
-242 323 -377 341 -78 10 -84 26 -33 81 23 25 50 64 60 87 66 149 4 321 -136
372 -33 13 -75 43 -129 94 -44 42 -116 110 -160 151 -74 68 -82 80 -93 131 -9
40 -23 65 -49 93 -40 40 -101 76 -130 75 -10 0 5 -10 32 -23 29 -13 67 -42 88
-66 53 -62 46 -68 -12 -10 -30 30 -64 53 -90 61 -37 11 -46 19 -42 42 0 4 -7
7 -18 7 -11 0 -66 50 -133 118 l-114 119 4 65 c6 100 -23 144 -119 177 -49 17
-57 23 -81 72 -15 30 -36 88 -47 129 -19 74 -19 76 0 106 23 38 25 123 5 162
-8 15 -26 38 -40 51 -25 24 -26 29 -26 135 0 94 3 117 21 152 32 60 21 107
-31 134 -33 17 -40 26 -40 49 0 82 -22 348 -36 431 -20 120 -32 160 -47 155
-7 -2 -22 11 -34 30 -27 42 -21 45 12 8 30 -34 33 -16 4 21 -27 35 -93 37
-135 4z m94 -45 c2 -7 -7 -17 -21 -22 -14 -5 -34 -22 -45 -38 -28 -41 -84
-173 -122 -288 -40 -124 -49 -142 -50 -94 0 91 114 387 169 437 26 24 61 26
69 5z m-193 -77 c-9 -13 -55 -46 -103 -73 -77 -43 -269 -186 -377 -282 -213
-190 -343 -342 -512 -601 -31 -47 -60 -89 -65 -95 -14 -16 -27 15 -18 45 12
43 190 306 278 410 137 164 337 345 497 449 74 48 295 171 308 171 4 0 0 -11
-8 -24z m265 0 c16 -44 41 -260 47 -414 l6 -153 33 -14 c38 -16 68 -57 60 -82
-10 -29 -44 -68 -52 -60 -4 4 0 15 9 25 18 19 22 59 9 78 -4 6 -21 19 -39 27
-39 21 -40 24 -53 271 -6 109 -17 226 -25 260 -8 33 -15 67 -15 74 0 20 10 14
20 -12z m2806 -619 c-10 -7 -41 -27 -69 -45 -27 -18 -44 -25 -36 -16 23 28 91
74 108 73 13 0 13 -2 -3 -12z m-2761 -28 c0 -30 -155 -51 -190 -26 -26 20 -9
27 81 32 42 3 79 7 82 10 10 9 27 -1 27 -16z m2790 -42 c12 -48 18 -488 8
-597 -7 -86 -8 -70 -15 160 -10 370 -15 432 -33 442 -18 11 -20 35 -2 41 18 7
34 -10 42 -46z m63 -18 c-3 -20 -5 -19 -9 9 -3 20 -2 29 4 23 5 -5 7 -19 5
-32z m-2796 -181 c3 -68 8 -130 11 -138 7 -17 -8 -48 -18 -38 -11 10 -27 227
-20 264 12 66 23 32 27 -88z m-160 -84 c2 -103 -1 -159 -8 -165 -6 -5 -51 -12
-100 -15 -80 -7 -88 -6 -76 8 15 18 14 18 37 164 23 143 27 152 67 157 85 10
77 26 80 -149z m2616 46 c-55 -81 -78 -105 -78 -82 0 9 128 172 135 172 3 0
-23 -40 -57 -90z m-24 25 c-15 -20 -29 -33 -32 -31 -5 6 40 65 51 65 4 1 -4
-15 -19 -34z m-79 -111 c-20 -33 -44 -70 -53 -84 -10 -15 4 -7 38 23 30 26 61
47 69 47 10 0 11 -3 2 -14 -9 -10 -8 -15 2 -19 16 -6 44 -224 39 -307 -2 -24
-2 -24 -16 -4 -13 18 -34 186 -29 224 2 8 -2 24 -7 35 -5 11 -10 28 -12 37 -3
18 -7 15 -123 -90 -75 -68 -90 -77 -37 -21 28 30 52 62 52 70 0 17 100 172
107 166 2 -3 -12 -31 -32 -63z m-3815 21 c0 -3 -18 -23 -41 -44 -33 -31 -42
-46 -46 -83 -3 -25 0 -55 6 -67 13 -24 0 -29 -19 -6 -8 10 -11 35 -8 72 4 50
9 60 46 95 37 34 62 47 62 33z m1540 -79 c0 -20 -1 -20 -20 4 -27 34 -27 59 0
35 11 -10 20 -28 20 -39z m-112 -11 c-3 -3 -9 2 -12 12 -6 14 -5 15 5 6 7 -7
10 -15 7 -18z m118 -77 c-6 -32 -41 -78 -59 -78 -6 0 -1 10 11 23 12 13 27 37
33 55 14 41 23 41 15 0z m-118 -3 c11 -10 -51 -54 -103 -72 -30 -10 -83 -18
-130 -19 -44 0 -131 -7 -193 -14 -210 -24 -637 1 -700 40 -13 9 -4 10 38 5 30
-4 91 -11 135 -16 196 -22 563 0 687 42 110 37 246 55 266 34z m2694 -41 c-7
-27 -11 -34 -16 -23 -7 16 10 76 19 67 3 -3 1 -23 -3 -44z m-4235 -35 c-3 -12
-1 -29 5 -38 8 -13 3 -32 -22 -81 -39 -77 -140 -327 -140 -346 0 -19 -14 -17
-33 4 -15 16 -15 23 -2 62 25 79 42 122 92 230 70 151 115 229 100 169z m1644
-111 c6 -29 16 -60 20 -68 53 -105 69 -144 64 -158 -3 -9 -9 -12 -14 -6 -10
11 -98 232 -101 254 -9 62 15 45 31 -22z m-32 -53 c32 -93 45 -127 68 -172 12
-24 17 -45 12 -49 -12 -7 -52 83 -90 200 -32 98 -33 104 -20 91 5 -6 19 -37
30 -70z m-249 46 c0 -5 -9 -7 -20 -4 -11 3 -20 7 -20 9 0 2 9 4 20 4 11 0 20
-4 20 -9z m84 -17 c9 -3 16 -14 16 -24 0 -10 6 -25 13 -32 7 -7 29 -60 48
-118 20 -58 38 -112 42 -120 9 -20 -37 -46 -116 -64 -81 -19 -187 -29 -168
-17 11 7 13 24 7 78 -9 97 -16 152 -26 198 -5 22 -6 43 -2 47 9 9 140 56 159
57 6 1 18 -2 27 -5z m-2361 -60 l-2 -49 13 31 c8 18 19 35 25 38 14 9 14 -7 1
-20 -20 -20 -50 -236 -50 -358 0 -126 -15 -152 -23 -41 -3 33 -3 -30 -1 -140
2 -110 8 -225 13 -255 5 -30 12 -84 15 -120 l6 -65 -14 44 c-8 24 -25 103 -37
175 -28 166 -33 450 -9 467 11 8 12 12 3 16 -27 10 -4 253 29 316 17 33 33 13
31 -39z m472 -19 l30 -15 -35 6 c-19 3 -39 10 -44 15 -15 14 15 10 49 -6z m76
-33 c-7 -2 -18 1 -23 6 -8 8 -4 9 13 5 13 -4 18 -8 10 -11z m-334 -38 c-3 -3
-12 -4 -19 -1 -8 3 -5 6 6 6 11 1 17 -2 13 -5z m2510 -25 c66 -32 105 -129 73
-179 -7 -11 -10 2 -10 44 0 53 -3 61 -34 92 -19 19 -43 34 -54 34 -11 0 -25 7
-32 15 -18 22 4 20 57 -6z m-2247 -39 c13 -8 13 -10 -2 -10 -9 0 -20 5 -23 10
-8 13 5 13 25 0z m80 -30 c18 -12 2 -12 -25 0 -13 6 -15 9 -5 9 8 0 22 -4 30
-9z m4637 -112 c-4 -51 -13 -97 -18 -102 -12 -13 -12 22 1 104 11 66 17 90 23
90 1 0 -1 -42 -6 -92z m-4521 50 c-9 -13 -23 -33 -32 -45 -19 -27 -21 -117 -3
-141 7 -9 2 -7 -12 6 -44 41 -25 143 36 194 26 21 32 14 11 -14z m2014 2 c0
-12 -9 -22 -23 -25 -12 -4 -27 -16 -32 -28 -22 -49 -157 -106 -265 -112 -30
-2 -95 -10 -145 -19 -109 -18 -327 -42 -530 -56 -154 -12 -531 -4 -540 10 -3
5 165 10 373 12 334 4 393 7 517 27 187 31 249 49 235 66 -9 10 1 18 45 34 31
12 60 21 65 21 5 0 57 18 116 39 97 36 109 38 119 24 11 -15 14 -14 24 5 15
27 41 29 41 2z m265 -255 c118 -118 155 -160 155 -180 0 -14 -4 -25 -9 -25
-17 0 -268 269 -290 310 -40 78 -35 74 144 -105z m1841 78 c-55 -49 -84 -60
-129 -45 l-32 10 44 1 c37 1 42 3 31 16 -10 12 -7 17 14 26 14 7 26 16 26 21
0 5 10 6 23 3 15 -4 28 -1 36 9 7 9 18 13 24 9 6 -4 -9 -24 -37 -50z m129 37
c-9 -15 -295 -230 -306 -230 -27 0 -1 30 59 67 37 24 102 72 145 108 43 36 85
65 93 65 8 0 12 -4 9 -10z m-5085 -270 c6 -63 13 -128 16 -145 5 -27 4 -28 -7
-10 -11 18 -14 12 -26 -50 -40 -216 -59 -705 -32 -851 17 -94 78 -239 226
-542 l75 -154 46 7 c109 14 133 10 245 -39 155 -68 507 -280 649 -390 14 -12
61 -45 102 -75 42 -29 75 -56 72 -58 -5 -6 -7 -4 -266 165 -286 188 -278 183
-423 261 -67 36 -148 51 -288 51 l-96 0 -52 81 c-89 138 -250 482 -316 674
-25 74 -37 355 -25 605 10 199 29 374 67 590 17 101 18 103 20 50 2 -30 8
-107 13 -170z m3233 -92 c-2 -3 -18 8 -36 25 -18 18 -55 52 -83 77 -65 59
-174 177 -174 188 0 5 67 -57 148 -137 82 -80 147 -149 145 -153z m1271 248
c-4 -23 -1 -46 10 -67 22 -44 12 -49 -13 -8 -23 38 -26 61 -11 90 16 29 22 23
14 -15z m591 -45 c-35 -68 -55 -94 -55 -71 0 15 49 111 68 133 28 32 24 10
-13 -62z m215 61 c0 -14 -105 -109 -175 -159 -126 -89 -125 -87 20 43 55 49
106 96 113 106 13 18 42 25 42 10z m-4494 -107 c-3 -16 -12 -61 -21 -100 -9
-38 -26 -127 -38 -197 -22 -129 -34 -151 -57 -107 -14 25 -6 96 27 249 14 63
29 135 34 160 15 75 18 78 40 50 13 -17 18 -35 15 -55z m1784 65 c-8 -5 -19
-10 -25 -10 -5 0 -3 5 5 10 8 5 20 10 25 10 6 0 3 -5 -5 -10z m2103 -57 c26
-8 47 -17 47 -20 0 -3 -27 -3 -59 0 -70 8 -171 49 -171 71 0 12 12 10 68 -11
37 -14 88 -32 115 -40z m-1889 5 c20 -42 88 -136 166 -228 16 -19 30 -38 30
-42 0 -5 7 -8 15 -8 32 0 12 -18 -52 -47 -38 -17 -81 -35 -98 -41 -44 -16
-272 -69 -325 -75 -45 -6 -45 -6 -15 8 24 11 26 14 10 15 l-20 1 20 9 c15 6
16 9 4 9 -11 1 -16 10 -15 29 1 15 -3 33 -8 40 -5 8 -11 21 -12 30 -11 71 -46
207 -55 213 -16 9 24 34 86 52 28 9 88 29 135 46 47 17 92 31 100 31 8 0 24
-19 34 -42z m2495 -3 c-13 -13 -28 -25 -33 -25 -6 0 3 13 19 30 16 16 31 28
33 25 3 -2 -6 -16 -19 -30z m-835 -68 c-4 -31 -10 -54 -14 -52 -9 6 -20 -19
-20 -44 0 -10 10 -30 21 -45 12 -15 20 -29 18 -31 -7 -6 -35 19 -48 43 -14 27
-5 92 14 92 7 0 15 20 19 51 4 28 9 49 12 47 2 -3 2 -30 -2 -61z m690 -52
c-38 -30 -73 -54 -79 -54 -5 0 1 8 14 17 14 9 45 34 70 54 25 21 50 37 55 38
5 0 -22 -25 -60 -55z m-435 9 c25 -8 57 -12 75 -9 29 6 30 5 12 -10 -11 -8
-28 -15 -37 -15 -13 0 -19 -9 -21 -32 -2 -26 -8 -34 -27 -36 -32 -5 -46 12
-43 52 3 26 -2 38 -20 50 -21 15 -21 16 -3 16 11 0 40 -7 64 -16z m470 -31
c-19 -21 -36 -40 -39 -43 -3 -3 -33 -39 -67 -80 -81 -100 -171 -194 -147 -155
9 16 36 52 58 80 23 28 63 80 91 116 46 60 124 132 134 123 3 -3 -11 -21 -30
-41z m-169 12 c0 -2 -10 -9 -22 -15 -22 -11 -22 -10 -4 4 21 17 26 19 26 11z
m-225 -36 c-1 -12 -9 -26 -19 -31 -16 -9 -17 -7 -11 13 6 19 21 37 31 39 0 0
0 -9 -1 -21z m-292 -4 c19 -8 37 -12 39 -9 3 2 11 -2 18 -11 7 -8 20 -15 29
-15 9 0 34 -9 56 -20 22 -11 45 -20 52 -20 7 0 13 -4 13 -10 0 -13 -3 -13 -85
9 -76 20 -175 66 -175 81 0 14 11 13 53 -5z m287 -91 c0 -10 -7 -14 -22 -12
-32 5 -35 28 -4 28 17 0 26 -5 26 -16z m-1568 -19 c12 -16 10 -23 -19 -51 -31
-29 -159 -92 -250 -123 -58 -20 -370 -86 -553 -117 -230 -40 -311 -51 -585
-79 -160 -16 -477 -19 -510 -5 -18 8 -17 9 6 9 476 13 752 33 932 66 139 26
364 83 409 104 23 11 97 39 163 61 133 45 303 114 331 135 21 15 66 15 76 0z
m405 -137 c126 -126 144 -148 149 -183 l6 -40 -32 40 c-18 22 -91 97 -161 167
-118 116 -149 158 -117 158 6 0 76 -64 155 -142z m-2977 78 c-6 -20 -15 -36
-20 -36 -12 0 -30 -58 -30 -99 0 -20 5 -53 11 -74 14 -51 6 -57 -15 -12 -38
80 -28 169 27 232 35 40 43 37 27 -11z m3893 -40 c3 -28 1 -43 -3 -35 -4 7
-11 39 -14 69 -4 34 -3 47 3 35 4 -11 11 -42 14 -69z m131 42 c41 -11 70 -28
49 -28 -6 0 -16 -29 -23 -65 -7 -36 -17 -65 -22 -65 -5 0 -20 8 -31 18 -19 14
-22 27 -22 85 0 37 2 67 4 67 2 0 22 -5 45 -12z m-4634 -39 c0 -5 -4 -9 -10
-9 -5 0 -10 7 -10 16 0 8 5 12 10 9 6 -3 10 -10 10 -16z m3536 -101 c134 -140
197 -215 189 -227 -3 -6 -31 20 -62 57 -71 84 -132 149 -205 220 -32 31 -58
60 -58 64 0 19 41 -16 136 -114z m1176 82 c-2 -16 -8 -27 -13 -24 -5 3 -9 -7
-9 -23 0 -15 -5 -35 -11 -43 -13 -19 -2 76 12 103 15 27 26 20 21 -13z m-4579
-75 l5 -40 -13 30 c-16 33 -21 91 -6 65 5 -8 11 -33 14 -55z m4776 -49 c-9 -8
-10 -7 -5 7 3 10 7 31 8 45 1 22 2 21 5 -7 3 -19 -1 -38 -8 -45z m-4879 11
c34 -133 174 -443 243 -536 122 -168 494 -501 827 -741 135 -98 124 -89 119
-94 -2 -2 -26 11 -54 30 -67 45 -80 45 -60 -2 17 -42 19 -54 6 -54 -4 0 -62
36 -127 79 -138 92 -312 262 -480 471 -56 69 -132 161 -169 205 -156 185 -266
408 -325 662 -11 48 8 29 20 -20z m4480 17 c0 -8 -4 -12 -10 -9 -5 3 -10 10
-10 16 0 5 5 9 10 9 6 0 10 -7 10 -16z m100 -32 l25 -17 -28 -3 c-30 -4 -77
21 -77 39 0 14 47 3 80 -19z m-1583 -28 c-3 -3 -12 -4 -19 -1 -8 3 -5 6 6 6
11 1 17 -2 13 -5z m826 -68 c38 -44 57 -99 57 -168 0 -37 -3 -69 -7 -71 -5 -3
-6 19 -5 49 5 76 -20 135 -81 189 -27 25 -53 45 -58 45 -5 0 -9 7 -9 15 0 12
9 9 43 -11 23 -14 50 -36 60 -48z m-873 54 c-8 -5 -19 -10 -25 -10 -5 0 -3 5
5 10 8 5 20 10 25 10 6 0 3 -5 -5 -10z m206 2 c-3 -5 22 -34 54 -65 33 -31 60
-53 60 -49 0 7 50 -45 149 -154 29 -32 60 -61 68 -64 17 -7 -61 -61 -156 -110
-114 -57 -365 -142 -533 -180 -105 -24 -125 -25 -78 -3 19 9 42 15 50 14 11
-2 10 2 -4 12 -18 14 -18 14 0 21 19 7 18 8 -1 22 -12 9 -21 31 -25 62 -3 29
-10 46 -17 45 -19 -4 -36 36 -29 68 3 15 1 31 -4 34 -6 4 -8 11 -4 16 3 5 0 8
-8 7 -12 -3 -14 4 -17 58 -1 11 -10 30 -21 42 -12 12 -16 22 -10 22 6 0 9 4 6
9 -3 5 -16 7 -29 5 -12 -2 14 8 58 21 132 42 215 71 320 115 55 23 116 45 135
50 19 4 36 8 38 9 2 1 1 -3 -2 -7z m1432 -58 c8 -8 9 -14 3 -14 -6 0 -11 -9
-11 -19 0 -24 -13 -33 -34 -25 -19 7 -29 38 -21 64 7 23 37 20 63 -6z m129
-29 c-4 -8 -11 -15 -17 -15 -7 0 -7 6 0 21 13 23 26 19 17 -6z m-4153 -34 c-5
-34 -3 -39 16 -44 15 -4 21 -11 17 -21 -8 -21 -36 -240 -39 -298 0 -27 -5 -48
-9 -48 -4 0 -19 15 -32 33 -27 35 -27 40 -1 207 12 83 27 155 40 198 8 28 14
9 8 -27z m3926 10 c0 -5 11 -12 25 -15 13 -3 37 -11 52 -17 25 -9 26 -11 10
-21 -14 -7 -30 -4 -65 14 -47 24 -66 48 -38 48 9 0 16 -4 16 -9z m231 -54
c-10 -9 -11 -8 -5 6 3 10 9 15 12 12 3 -3 0 -11 -7 -18z m-235 -54 c-7 -23
-51 -187 -77 -282 -10 -41 -22 -77 -25 -80 -4 -3 -4 5 0 19 3 14 25 100 48
193 23 92 46 167 51 167 4 0 6 -8 3 -17z m60 -6 c2 -7 -7 -56 -22 -108 -14
-52 -29 -110 -34 -129 -9 -42 -62 -243 -95 -360 -13 -47 -37 -137 -53 -200
-43 -164 -82 -312 -88 -332 -3 -10 -12 -18 -20 -18 -15 0 -14 11 12 105 8 28
36 136 64 240 28 105 56 213 64 240 7 28 21 79 31 115 9 36 25 94 35 130 50
179 80 299 80 314 0 19 18 22 26 3z m-4063 -84 c6 -10 -10 -123 -18 -131 -7
-7 -104 99 -105 115 0 18 113 32 123 16z m4118 -24 c-5 -13 -10 -19 -10 -12
-1 15 10 45 15 40 3 -2 0 -15 -5 -28z m-962 4 c8 -15 11 -15 25 -3 28 22 42
-3 20 -34 -11 -14 -23 -26 -28 -26 -5 0 -33 -23 -62 -50 -52 -49 -104 -77
-269 -146 -139 -57 -493 -160 -518 -151 -14 5 -15 5 96 38 58 17 76 26 72 37
-4 10 0 12 12 8 15 -6 16 -5 6 5 -21 22 -15 34 25 48 222 76 336 128 507 234
50 31 93 56 97 56 4 1 11 -7 17 -16z m923 -135 c-8 -8 -9 -4 -5 13 4 13 8 18
11 10 2 -7 -1 -18 -6 -23z m-3991 -176 c159 -162 312 -292 514 -437 54 -38
145 -105 203 -148 58 -42 125 -90 149 -105 41 -26 54 -42 33 -42 -14 0 -232
149 -360 246 -58 43 -118 88 -134 99 -15 11 -33 25 -40 30 -6 6 -34 28 -61 50
-241 191 -526 475 -477 475 5 0 82 -75 173 -168z m3368 75 c104 -48 223 -182
276 -309 8 -21 13 -38 10 -38 -2 0 -12 17 -20 37 -48 114 -197 256 -319 305
-33 13 -61 29 -64 36 -6 18 38 7 117 -31z m599 1 c-6 -18 -13 -27 -15 -21 -4
11 13 53 22 53 2 0 -1 -15 -7 -32z m-853 -25 c78 -88 119 -182 141 -323 25
-163 -8 -301 -85 -358 -36 -26 -107 -30 -150 -7 -43 22 -110 102 -144 173 -16
34 -32 60 -34 58 -13 -13 68 -146 118 -197 87 -87 160 -97 234 -32 37 32 75
120 90 208 7 38 8 39 17 15 6 -14 15 -34 21 -45 5 -11 14 -33 18 -50 4 -16 17
-55 29 -85 57 -147 64 -186 63 -360 -1 -161 -20 -301 -54 -395 -32 -87 -56
-144 -75 -180 -72 -137 -102 -187 -146 -244 -70 -93 -63 -44 9 55 98 136 189
352 228 539 27 128 25 346 -4 465 -20 79 -72 210 -84 210 -5 0 0 -82 7 -120
36 -180 45 -343 27 -450 l-8 -45 -2 44 c-1 43 -31 184 -38 178 -2 -2 -8 -53
-14 -113 -9 -93 -40 -249 -53 -261 -2 -2 -3 8 -3 22 0 15 -10 40 -22 56 -12
16 -24 43 -28 61 -18 96 -43 88 -43 -14 0 -103 -13 -186 -46 -303 -31 -106
-43 -126 -33 -53 11 78 11 250 0 243 -6 -3 -13 -27 -16 -53 -10 -74 -25 -122
-36 -122 -7 0 -9 10 -5 25 4 16 -1 38 -14 62 -11 21 -20 43 -20 49 0 6 -6 11
-12 11 -9 0 -12 -20 -11 -68 1 -38 -3 -71 -8 -75 -6 -4 -7 13 -3 47 5 38 4 50
-5 45 -6 -4 -11 -18 -11 -31 0 -13 -6 -36 -14 -52 -8 -15 -25 -57 -39 -93 -37
-97 -53 -87 -50 32 2 54 -1 108 -6 120 -11 29 -14 21 -33 -102 -8 -52 -25
-116 -37 -142 -22 -50 -32 -60 -29 -30 4 27 -13 194 -22 217 -9 23 -6 34 -34
-115 -8 -47 -23 -110 -33 -140 l-17 -55 -18 120 c-33 211 -59 255 -54 93 4
-132 3 -135 -48 -94 -51 41 -72 53 -148 77 -65 22 -183 28 -260 15 l-48 -8 0
49 c0 28 -7 72 -15 99 -8 27 -15 59 -15 71 0 44 -43 138 -81 176 -29 30 -39
48 -44 88 -11 82 -74 134 -175 146 -25 3 -73 21 -107 40 -114 63 -290 113
-401 113 -28 0 -41 4 -37 11 4 6 13 8 21 5 9 -4 18 13 30 55 11 39 24 64 38
72 12 7 72 12 146 13 131 2 386 21 400 29 10 6 14 -8 30 -100 27 -153 124
-291 253 -357 56 -29 71 -33 147 -33 74 0 91 3 135 28 96 53 152 121 194 235
19 50 24 82 24 165 0 89 -5 114 -33 196 -17 51 -29 95 -26 99 3 3 6 -3 6 -13
0 -18 1 -18 15 1 14 18 15 18 9 0 -6 -15 -3 -17 14 -12 12 3 31 9 43 12 12 3
31 7 42 8 12 2 40 8 62 15 22 7 53 17 69 22 34 10 46 5 46 -20 0 -10 7 -34 15
-52 13 -32 14 -32 15 -8 0 14 -5 30 -12 37 -16 16 -17 274 -1 279 9 3 12 -21
12 -89 1 -74 5 -104 24 -148 34 -81 52 -112 84 -142 60 -57 122 -57 159 1 23
34 46 133 34 145 -9 9 -112 48 -115 43 0 -1 -5 -15 -11 -32 -14 -43 -51 -41
-82 5 -19 28 -22 45 -20 94 2 44 8 62 21 70 15 9 24 5 53 -26 23 -25 34 -47
34 -67 l0 -30 53 36 c28 19 54 36 55 38 8 8 -60 133 -86 160 l-30 30 36 21
c21 12 38 23 40 23 2 1 14 -11 27 -26z m229 -52 c28 -21 60 -41 71 -45 11 -3
31 -15 45 -26 l25 -21 -30 7 c-16 4 -61 23 -100 43 -100 53 -97 50 -82 66 16
19 14 20 71 -24z m456 -8 c-11 -17 -11 -17 -6 0 3 10 7 26 7 35 1 15 2 15 6 0
2 -10 -1 -25 -7 -35z m131 -44 c-6 -16 -10 -18 -10 -7 -1 22 12 55 16 42 2 -6
-1 -22 -6 -35z m-144 -1 c-3 -8 -6 -5 -6 6 -1 11 2 17 5 13 3 -3 4 -12 1 -19z
m-22 -88 c-9 -28 -19 -50 -21 -48 -2 2 4 27 13 56 9 28 19 50 21 47 2 -2 -4
-27 -13 -55z m-376 35 c24 -12 91 -99 91 -118 0 -10 -52 -2 -81 12 -17 9 -31
27 -38 53 -7 22 -15 46 -18 54 -7 18 11 18 46 -1z m-1224 -15 c-3 -5 -14 -10
-23 -10 -15 0 -15 2 -2 10 20 13 33 13 25 0z m1739 -34 c-3 -15 -8 -25 -11
-23 -2 3 -1 17 3 31 3 15 8 25 11 23 2 -3 1 -17 -3 -31z m-3699 4 c10 -11 16
-20 13 -20 -3 0 -13 9 -23 20 -10 11 -16 20 -13 20 3 0 13 -9 23 -20z m1802
-6 c-3 -3 -12 -4 -19 -1 -8 3 -5 6 6 6 11 1 17 -2 13 -5z m1304 -84 c6 -14 15
-32 20 -40 5 -8 23 -44 40 -80 39 -82 68 -121 131 -170 27 -22 47 -40 43 -40
-4 0 -37 17 -73 38 -37 20 -76 42 -87 47 -19 10 -41 46 -77 130 -16 37 -48
158 -48 180 0 13 36 -32 51 -65z m-2665 23 c-11 -11 -19 6 -11 24 8 17 8 17
12 0 3 -10 2 -21 -1 -24z m3095 -14 c-5 -13 -10 -19 -10 -12 -1 15 10 45 15
40 3 -2 0 -15 -5 -28z m-1333 -31 c122 -123 169 -308 123 -483 -22 -87 -38
-117 -91 -177 -83 -95 -219 -132 -330 -91 -129 48 -192 118 -274 302 -6 13
-11 79 -11 145 0 104 3 130 24 184 17 46 31 66 48 73 41 15 43 11 17 -48 -46
-103 -32 -253 34 -357 130 -207 366 -168 426 70 9 37 15 68 14 70 -2 1 -35 8
-72 14 -108 17 -109 21 -21 75 40 25 65 47 65 58 0 28 -38 95 -81 142 l-40 44
48 14 c68 21 65 22 121 -35z m-879 38 c-15 -16 -234 -36 -383 -36 -229 0 -207
18 35 29 226 10 354 12 348 7z m2342 -57 c-6 -16 -10 -18 -10 -7 -1 22 12 55
16 42 2 -6 -1 -22 -6 -35z m-360 6 c8 -8 21 -15 27 -15 7 0 12 -4 12 -10 0 -5
-4 -10 -9 -10 -6 0 -13 5 -16 10 -3 6 -16 10 -29 10 -33 0 -86 20 -86 32 0 15
81 1 101 -17z m203 -55 c-16 -68 -31 -100 -19 -40 12 62 26 112 30 108 2 -2
-3 -33 -11 -68z m130 -54 c-3 -14 -10 -26 -15 -26 -4 0 -3 14 3 31 12 36 22
33 12 -5z m-1705 3 c21 -7 40 -26 58 -56 22 -38 25 -52 20 -95 -7 -56 -17 -72
-60 -94 -64 -33 -137 40 -137 137 0 45 4 55 34 85 38 38 40 39 85 23z m867
-10 c3 -6 1 -16 -5 -22 -9 -9 -14 -8 -21 3 -9 15 -4 30 10 30 5 0 12 -5 16
-11z m34 -19 c0 -5 -2 -10 -4 -10 -3 0 -8 5 -11 10 -3 6 -1 10 4 10 6 0 11 -4
11 -10z m645 -40 c-4 -17 -9 -29 -12 -26 -3 2 -2 19 2 36 4 17 9 29 12 26 3
-2 2 -19 -2 -36z m266 -111 c30 -59 49 -127 49 -176 0 -42 -5 -48 -79 -100 -2
-2 -1 -6 2 -9 8 -8 53 21 84 54 l23 25 0 -33 c0 -18 -14 -59 -32 -92 -34 -63
-62 -88 -72 -63 -3 8 -11 15 -18 15 -10 0 -10 -2 1 -9 9 -6 10 -11 2 -15 -6
-4 -13 5 -17 21 -4 15 -16 42 -27 61 l-20 33 26 -6 c13 -4 28 -2 31 3 3 5 -10
13 -30 17 -80 15 -97 63 -70 193 8 37 18 96 21 132 4 35 9 68 12 74 8 13 88
-76 114 -125z m-332 110 c22 -8 30 -16 27 -26 -3 -8 -6 -19 -6 -24 0 -20 -19
-7 -39 26 -11 19 -19 35 -17 35 2 0 17 -5 35 -11z m-19 -64 c12 -19 20 -40 18
-47 -3 -9 -48 62 -48 77 0 12 10 2 30 -30z m208 4 c-6 -16 -13 -28 -15 -25 -8
8 6 56 17 56 5 0 5 -13 -2 -31z m-151 -41 c-3 -7 -5 -2 -5 12 0 14 2 19 5 13
2 -7 2 -19 0 -25z m113 -97 c-11 -35 -20 -72 -20 -82 0 -11 -4 -19 -10 -19
-13 0 -13 8 4 61 8 24 20 67 27 94 8 30 15 42 17 30 1 -11 -6 -49 -18 -84z
m315 -46 c-17 -89 -28 -107 -44 -76 -7 12 -9 21 -7 21 3 0 1 12 -4 26 -9 23
-6 30 20 57 16 17 30 40 30 51 0 13 3 17 10 10 6 -6 5 -37 -5 -89z m-468 -7
c-3 -8 -6 -5 -6 6 -1 11 2 17 5 13 3 -3 4 -12 1 -19z m-47 -26 c0 -4 -21 -25
-47 -47 -48 -39 -33 -12 17 32 28 25 30 26 30 15z m-1462 -29 c-2 -10 -10 -18
-18 -18 -8 0 -16 8 -18 18 -2 12 3 17 18 17 15 0 20 -5 18 -17z m50 -4 c-2 -6
-8 -10 -13 -10 -5 0 -11 4 -13 10 -2 6 4 11 13 11 9 0 15 -5 13 -11z m1485
-102 c-16 -60 -29 -111 -78 -297 -20 -74 -42 -157 -49 -185 -8 -27 -17 -62
-20 -77 -4 -16 -13 -28 -21 -28 -18 0 -18 4 -4 50 5 19 25 94 44 165 19 72 43
166 55 210 11 44 29 112 39 150 11 39 22 84 27 100 l7 30 7 -33 c5 -20 2 -53
-7 -85z m107 76 c60 -43 116 -117 126 -168 12 -68 -57 -122 -142 -109 -27 4
-44 2 -44 -4 0 -14 25 -22 66 -22 41 0 68 12 108 49 23 20 28 22 22 7 -10 -27
-48 -72 -77 -90 -22 -13 -29 -13 -38 -3 -6 8 -29 19 -50 26 -34 10 -40 16 -40
39 1 15 -2 91 -6 170 -7 164 -8 163 75 105z m-2470 16 c135 -21 312 -98 408
-176 51 -41 57 -65 7 -27 -78 59 -187 112 -300 145 -65 19 -104 23 -207 24
-133 0 -148 8 -56 30 67 17 70 17 148 4z m2250 -114 c-18 -54 -19 -56 -16 -20
4 44 26 106 32 90 2 -5 -5 -37 -16 -70z m486 -36 c-8 -19 -29 -47 -46 -64 -18
-16 -40 -46 -50 -65 -10 -19 -28 -44 -40 -55 -21 -18 -21 -17 4 22 14 24 26
47 26 53 0 6 21 32 46 58 25 25 50 57 55 71 5 13 12 22 14 19 3 -3 -1 -20 -9
-39z m-2261 -5 c35 -16 86 -64 68 -64 -5 0 -18 9 -28 20 -10 11 -38 26 -62 32
-24 6 -46 14 -49 19 -9 14 35 10 71 -7z m-942 -131 c-50 -132 -63 -194 -63
-293 0 -52 4 -111 9 -130 19 -75 22 -92 12 -86 -5 3 -17 32 -28 64 -27 85 -25
245 4 337 20 63 77 175 88 175 2 0 -7 -30 -22 -67z m2714 15 c-3 -7 -5 -2 -5
12 0 14 2 19 5 13 2 -7 2 -19 0 -25z m118 -76 c-9 -31 -25 -84 -36 -117 -10
-33 -20 -69 -22 -80 -2 -11 -7 -27 -10 -35 -4 -8 -10 -33 -15 -54 -4 -22 -14
-42 -21 -44 -10 -3 -12 0 -7 14 4 11 26 82 47 159 68 238 72 251 77 232 2 -10
-4 -43 -13 -75z m-2260 51 c60 -23 145 -64 190 -93 22 -14 57 -34 78 -45 20
-11 37 -23 37 -28 0 -27 -76 -140 -132 -197 -54 -54 -216 -180 -231 -180 -12
1 7 19 81 79 45 36 50 51 10 30 -23 -12 -23 -12 -4 10 14 16 16 21 5 21 -15 1
-112 145 -161 240 -17 32 -33 81 -36 108 -4 42 -1 51 18 65 25 17 83 14 145
-10z m2132 -15 c-3 -8 -6 -5 -6 6 -1 11 2 17 5 13 3 -3 4 -12 1 -19z m-1751
-73 c-5 -18 -2 -25 9 -25 18 0 20 -35 3 -46 -21 -13 -37 24 -25 61 12 40 22
48 13 10z m2069 9 c-36 -28 -61 -36 -30 -10 17 14 35 26 40 26 6 -1 1 -8 -10
-16z m-338 -16 c-3 -8 -6 -5 -6 6 -1 11 2 17 5 13 3 -3 4 -12 1 -19z m-37 -25
c0 -9 -4 -30 -10 -47 -5 -17 -17 -57 -26 -88 -9 -32 -21 -58 -25 -58 -5 0 -5
10 0 23 5 12 18 59 28 104 16 76 33 108 33 66z m290 -13 c-20 -13 -33 -13 -25
0 3 6 14 10 23 10 15 0 15 -2 2 -10z m-2014 -25 c-3 -9 0 -15 9 -15 24 0 17
-36 -15 -89 -34 -54 -60 -72 -60 -41 0 10 5 22 10 25 6 3 10 12 10 18 0 7 -13
-8 -29 -33 -15 -25 -36 -52 -47 -60 -16 -12 -16 -11 2 10 11 14 30 41 42 60
11 19 30 43 41 52 12 10 21 26 21 37 0 22 10 51 17 51 3 0 3 -7 -1 -15z m100
-92 c-11 -11 -19 6 -11 24 8 17 8 17 12 0 3 -10 2 -21 -1 -24z m-1496 -99 c0
-67 25 -227 50 -314 10 -36 39 -111 65 -168 26 -57 45 -106 42 -108 -4 -5 -39
53 -92 151 -33 60 -63 161 -75 248 -13 102 -13 260 0 252 6 -3 10 -31 10 -61z
m-240 -244 c17 -63 61 -193 70 -205 9 -13 20 -55 13 -55 -8 0 -60 125 -81 195
-35 122 -45 199 -36 283 l8 77 7 -125 c3 -69 12 -145 19 -170z m591 173 c-12
-58 -17 -70 -19 -48 -5 37 17 137 27 130 5 -2 1 -39 -8 -82z m961 69 c-16 -43
-187 -212 -213 -212 -4 0 213 228 218 229 1 1 -1 -7 -5 -17z m-93 -62 c-13
-12 -37 -33 -54 -49 -16 -15 -37 -31 -45 -35 -8 -4 14 19 50 52 36 33 67 58
69 56 2 -2 -7 -13 -20 -24z m1371 16 c0 -3 -4 -8 -10 -11 -5 -3 -10 -1 -10 4
0 6 5 11 10 11 6 0 10 -2 10 -4z m536 -10 c10 -8 16 -18 12 -21 -11 -11 -55 3
-62 20 -7 19 23 20 50 1z m-2669 -18 c-3 -8 -6 -5 -6 6 -1 11 2 17 5 13 3 -3
4 -12 1 -19z m1034 -11 c-6 -6 -11 -17 -11 -25 0 -12 3 -12 15 -2 21 17 38 4
25 -21 -13 -24 -37 -25 -43 -1 -3 13 -6 11 -15 -10 -12 -29 -82 -138 -89 -138
-5 0 -3 3 42 75 17 28 42 73 56 102 13 28 26 47 28 41 2 -5 -2 -15 -8 -21z
m-996 -115 c-6 -6 -25 45 -31 83 -3 18 4 8 16 -24 11 -30 18 -57 15 -59z m895
58 c17 -17 18 -22 6 -52 -8 -18 -33 -55 -56 -81 -41 -46 -43 -47 -60 -30 -16
17 -16 20 2 55 11 20 26 42 34 49 8 6 14 16 14 21 0 8 31 57 38 58 1 0 11 -9
22 -20z m611 0 c75 -26 157 -86 204 -151 34 -47 34 -49 11 -43 -26 6 -86 -20
-86 -37 0 -7 10 -5 25 5 43 28 81 21 110 -22 32 -49 71 -146 80 -201 7 -40 6
-43 -11 -36 -11 4 -38 14 -61 22 -24 8 -45 19 -49 24 -3 5 -12 9 -20 9 -8 0
-33 12 -55 26 -23 14 -43 23 -46 20 -3 -2 13 -28 34 -58 59 -81 103 -156 110
-189 5 -27 3 -29 -25 -29 -19 0 -35 8 -46 23 -13 17 -16 18 -12 4 5 -17 2 -18
-36 -12 -24 4 -74 16 -111 26 -55 16 -72 26 -87 52 -24 39 -25 87 -4 128 19
38 93 74 135 65 27 -5 35 1 30 28 -1 4 3 24 10 43 17 52 3 52 -22 0 -19 -39
-28 -47 -66 -56 -55 -14 -100 -55 -117 -106 -11 -31 -20 -41 -40 -43 -30 -4
-32 -9 -10 -33 14 -16 12 -19 -27 -43 -26 -15 -47 -22 -54 -16 -5 4 -21 10
-35 12 -14 1 -24 8 -24 13 1 6 -7 16 -18 23 -41 29 -67 88 -78 179 -6 48 -13
98 -16 110 -8 30 45 140 87 181 18 17 48 37 68 44 43 16 214 15 254 -1 16 -6
26 -7 22 -1 -13 21 -148 52 -211 48 -35 -2 -60 0 -58 4 11 17 183 8 245 -12z
m1105 -47 c-15 -81 -31 -115 -48 -98 -6 6 16 107 27 124 15 25 27 10 21 -26z
m-364 0 c-6 -10 -20 -48 -32 -83 -12 -36 -38 -94 -58 -130 -19 -36 -63 -120
-98 -188 -42 -84 -63 -118 -68 -107 -6 17 71 187 110 240 24 33 104 184 104
196 0 16 41 102 46 96 3 -3 1 -14 -4 -24z m-1258 9 c11 -18 -83 -172 -105
-172 -15 0 -3 32 43 111 38 66 51 79 62 61z m1682 -9 c-3 -10 -8 -35 -12 -56
-6 -38 -24 -61 -24 -32 0 31 22 105 32 105 5 0 7 -8 4 -17z m-145 -50 c-12
-20 -14 -14 -5 12 4 9 9 14 11 11 3 -2 0 -13 -6 -23z m18 -64 c33 -11 43 -39
14 -39 -18 0 -53 28 -53 42 0 10 1 10 39 -3z m-2542 -81 c-3 -7 -5 -2 -5 12 0
14 2 19 5 13 2 -7 2 -19 0 -25z m2480 -65 c-12 -51 -27 -80 -27 -51 0 8 5 30
11 49 6 19 13 40 15 48 11 34 11 1 1 -46z m60 4 c-8 -55 -24 -97 -37 -97 -13
0 -13 24 1 75 16 61 17 65 30 65 8 0 10 -14 6 -43z m53 -36 c-7 -28 -16 -51
-22 -51 -10 0 -3 44 14 89 15 41 21 15 8 -38z m-2551 -11 l11 -35 -20 25 c-11
14 -20 34 -20 45 0 26 15 8 29 -35z m91 28 c0 -6 -6 -5 -15 2 -8 7 -15 14 -15
16 0 2 7 1 15 -2 8 -4 15 -11 15 -16z m1849 -59 c-30 -58 -57 -93 -97 -127
-30 -26 -68 -60 -84 -76 -16 -16 -31 -26 -34 -23 -10 10 70 98 93 104 16 3 23
13 23 29 0 13 4 24 8 24 4 0 33 34 63 75 29 41 58 75 62 75 4 0 -11 -36 -34
-81z m528 -53 c-2 -6 -13 -9 -23 -8 -24 5 -55 32 -48 43 7 12 75 -22 71 -35z
m-2673 -12 c3 -8 2 -12 -4 -9 -6 3 -10 10 -10 16 0 14 7 11 14 -7z m-150 -69
c4 -19 3 -25 -3 -15 -4 8 -11 29 -15 45 -4 19 -3 25 3 15 4 -8 11 -28 15 -45z
m186 26 c0 -18 119 -126 215 -193 125 -89 238 -179 232 -185 -5 -5 -107 70
-278 204 -101 78 -204 183 -180 183 6 0 11 -4 11 -9z m2510 -172 c-66 -255
-72 -274 -80 -283 -5 -5 -5 7 -1 25 21 90 61 237 70 262 6 16 11 43 11 62 0
19 4 36 9 40 5 3 13 20 17 38 4 17 9 27 11 21 2 -5 -15 -80 -37 -165z m157 94
c-1 -54 26 -153 42 -153 3 0 12 -9 19 -20 11 -17 4 -36 -53 -147 -77 -151
-110 -212 -125 -227 -13 -13 -14 6 -1 20 12 12 147 282 155 311 5 14 -5 41
-29 85 -33 61 -35 69 -29 126 9 78 22 81 21 5z m-1374 -134 c33 -21 63 -39 67
-39 5 0 10 -7 14 -15 13 -35 -152 76 -199 134 -11 13 -25 34 -32 45 -26 44
-11 35 38 -24 28 -34 79 -80 112 -101z m285 74 c25 -27 62 -71 83 -100 21 -28
43 -54 49 -58 23 -14 7 -21 -49 -20 -41 0 -63 6 -75 18 -10 9 -24 17 -32 17
-8 0 -22 4 -32 9 -27 15 -56 24 -68 22 -7 -1 -14 9 -17 21 -6 22 -7 22 -21 3
-14 -19 -15 -18 -16 21 0 50 28 90 73 103 53 15 59 13 105 -36z m109 -48 c-7
-16 -37 -21 -37 -5 0 10 32 31 39 25 2 -2 1 -11 -2 -20z m-1447 -77 c-3 -22
-39 -107 -39 -93 -1 31 19 95 29 95 6 0 10 -1 10 -2z m1198 -12 c15 -8 49 -17
75 -21 26 -4 47 -12 47 -17 0 -5 -8 -7 -17 -5 -10 3 -41 11 -70 17 -29 6 -57
18 -64 26 -15 18 -5 18 29 0z m-88 -47 c-33 -26 -88 -55 -142 -74 -81 -28 -73
-14 17 31 50 25 94 49 100 55 5 5 18 9 30 9 19 0 18 -2 -5 -21z m-690 -61 c0
-4 -17 4 -37 18 -53 36 -55 41 -5 14 23 -13 42 -27 42 -32z m350 48 c0 -2 -20
-33 -44 -69 -37 -55 -46 -64 -56 -52 -7 9 -8 15 -3 15 6 0 23 19 38 42 34 51
48 67 58 68 4 0 7 -2 7 -4z m480 -1 c0 -5 -80 -45 -89 -45 -3 1 8 12 24 25 26
22 65 34 65 20z m-645 -45 c21 -22 37 -40 34 -40 -3 0 -23 18 -44 40 -21 22
-37 40 -34 40 3 0 23 -18 44 -40z m601 -25 c-26 -19 -42 -19 -26 0 7 8 20 15
29 15 13 -1 13 -3 -3 -15z m-1228 -117 c9 -8 30 -20 47 -27 29 -12 29 -12 12
6 -9 11 -14 23 -10 28 5 4 -2 4 -14 1 -12 -4 -24 -2 -27 3 -7 11 15 18 64 20
19 0 51 3 70 6 30 5 43 1 80 -29 37 -30 53 -36 92 -36 26 0 59 5 75 11 15 6
41 11 57 11 16 -1 42 6 57 14 33 16 39 17 39 5 0 -18 -116 -65 -180 -73 -194
-24 -220 -23 -295 11 -75 34 -96 53 -94 85 2 20 2 20 6 0 2 -12 12 -28 21 -36z
m643 13 c-20 -28 -134 -111 -152 -111 -18 0 -8 15 42 63 45 43 97 75 122 77 5
0 -1 -13 -12 -29z m1555 -17 c-4 -14 -9 -24 -12 -21 -3 2 -2 17 2 31 3 15 9
25 11 22 3 -3 2 -17 -1 -32z m-2200 -39 c4 -8 1 -21 -5 -29 -6 -7 -9 -21 -5
-30 3 -9 2 -16 -4 -16 -6 0 -10 20 -10 45 0 44 13 60 24 30z m444 -47 c-33
-27 -169 -92 -177 -84 -3 3 2 15 12 26 10 11 13 20 7 20 -7 0 -12 5 -12 11 0
6 9 8 23 4 17 -5 19 -4 7 4 -8 6 -13 11 -10 11 3 1 30 4 60 6 30 3 61 9 70 14
31 19 46 10 20 -12z m-270 -7 l85 -6 -80 -47 c-124 -73 -192 -97 -179 -63 4 8
1 15 -5 15 -6 0 -11 4 -11 10 0 5 8 6 17 3 12 -5 15 -2 10 10 -3 9 -3 17 2 17
5 0 11 18 15 41 6 39 8 41 34 33 15 -4 65 -10 112 -13z m2140 -42 c-7 -11 -14
-18 -17 -15 -3 3 0 12 7 21 18 21 23 19 10 -6z m-2320 -10 c0 -6 -4 -7 -10 -4
-5 3 -10 11 -10 16 0 6 5 7 10 4 6 -3 10 -11 10 -16z m2271 -65 c-11 -15 -21
-24 -21 -20 0 12 33 57 37 52 3 -3 -4 -17 -16 -32z m-31 -48 c0 -2 -8 -10 -17
-17 -16 -13 -17 -12 -4 4 13 16 21 21 21 13z m-44 -64 c-18 -16 -18 -16 -6 6
6 13 14 21 18 18 3 -4 -2 -14 -12 -24z m-16 -26 c0 -2 -8 -10 -17 -17 -16 -13
-17 -12 -4 4 13 16 21 21 21 13z"/>
<path d="M741 4774 c-7 -36 -10 -68 -8 -71 3 -2 10 26 17 62 7 36 10 68 7 71
-2 3 -10 -25 -16 -62z"/>
<path d="M3986 1618 c-3 -7 -7 -25 -10 -40 -3 -14 -9 -33 -12 -42 -3 -9 -2
-16 4 -16 9 0 22 45 27 93 2 20 -4 23 -9 5z"/>
<path d="M4590 2746 c0 -26 37 -102 46 -94 2 2 -8 31 -21 64 -20 48 -25 54
-25 30z"/>
<path d="M5097 2553 c-4 -3 -7 -11 -7 -17 0 -6 5 -5 12 2 6 6 9 14 7 17 -3 3
-9 2 -12 -2z"/>
<path d="M5070 2370 c0 -5 7 -10 15 -10 8 0 15 5 15 10 0 6 -7 10 -15 10 -8 0
-15 -4 -15 -10z"/>
<path d="M5080 2319 c0 -5 5 -7 10 -4 6 3 10 8 10 11 0 2 -4 4 -10 4 -5 0 -10
-5 -10 -11z"/>
<path d="M5161 2194 c0 -11 3 -14 6 -6 3 7 2 16 -1 19 -3 4 -6 -2 -5 -13z"/>
<path d="M3748 1185 c-3 -14 -1 -25 3 -25 5 0 9 11 9 25 0 14 -2 25 -4 25 -2
0 -6 -11 -8 -25z"/>
<path d="M3845 1131 c-3 -5 -1 -12 5 -16 5 -3 10 1 10 9 0 18 -6 21 -15 7z"/>
<path d="M3540 993 c0 -13 5 -23 10 -23 13 0 13 11 0 30 -8 12 -10 11 -10 -7z"/>
<path d="M3590 978 c0 -9 5 -20 11 -23 17 -11 20 0 4 21 -13 17 -14 17 -15 2z"/>
<path d="M3645 940 c3 -5 11 -10 16 -10 6 0 7 5 4 10 -3 6 -11 10 -16 10 -6 0
-7 -4 -4 -10z"/>
<path d="M1426 6445 c-11 -29 -7 -36 17 -33 14 2 22 10 22 23 0 24 -30 32 -39
10z"/>
<path d="M2013 6453 c-7 -2 -13 -15 -13 -29 0 -17 7 -25 24 -30 32 -8 46 2 46
31 0 28 -25 41 -57 28z"/>
<path d="M2124 6435 c-10 -25 4 -45 31 -45 30 0 43 24 25 45 -16 19 -49 19
-56 0z"/>
<path d="M2244 6426 c-4 -17 -14 -26 -32 -28 -20 -2 -28 -10 -30 -26 -3 -21
-1 -23 20 -17 13 4 28 13 34 21 6 8 23 14 38 14 24 0 27 3 24 28 -4 38 -45 44
-54 8z"/>
<path d="M2373 6435 c-3 -9 -3 -18 -1 -21 9 -9 38 8 38 22 0 19 -29 18 -37 -1z"/>
<path d="M1950 6385 c-16 -19 -7 -41 20 -48 16 -4 23 0 29 16 15 39 -23 63
-49 32z"/>
<path d="M2063 6384 c-8 -22 10 -49 33 -49 14 0 20 8 22 33 3 29 1 32 -23 32
-14 0 -28 -7 -32 -16z"/>
<path d="M1369 6377 c-19 -14 -14 -37 8 -37 12 0 13 3 4 13 -8 10 -7 17 1 25
15 15 8 15 -13 -1z"/>
<path d="M3313 6363 c-43 -4 -56 -16 -28 -27 9 -3 15 -19 15 -41 0 -24 4 -35
15 -35 8 0 15 -9 15 -20 0 -11 -4 -20 -10 -20 -16 0 -12 -57 5 -64 8 -3 15
-13 15 -22 0 -16 2 -16 18 -1 29 26 83 30 112 8 24 -19 24 -20 7 -39 -10 -11
-32 -26 -48 -32 -27 -12 -32 -10 -58 14 -15 14 -30 23 -34 19 -13 -12 -7 -50
9 -64 11 -9 14 -23 11 -46 -4 -23 -2 -33 6 -32 27 4 97 -15 109 -29 9 -10 13
-56 14 -141 2 -166 2 -167 17 -169 6 0 32 -5 57 -11 25 -5 79 -15 120 -21 68
-11 237 -52 333 -80 22 -6 41 -9 44 -7 2 3 -9 35 -26 72 -17 36 -31 71 -31 76
0 20 -18 7 -30 -21 -23 -54 -34 -56 -165 -18 -110 31 -125 38 -132 66 -14 56
31 74 118 48 33 -9 60 -12 74 -6 36 14 66 73 72 143 3 34 10 68 16 75 11 15
59 16 73 2 6 -6 35 -19 64 -30 49 -18 56 -18 77 -5 27 18 72 86 83 126 7 22 3
35 -20 66 -21 28 -26 42 -19 55 23 43 163 4 200 -55 29 -47 21 -68 -33 -94
-29 -14 -49 -31 -53 -45 -4 -13 -22 -57 -40 -98 -19 -41 -46 -115 -61 -164
l-28 -88 25 -18 c22 -17 33 -18 35 -2 1 8 26 67 54 127 10 22 35 59 55 83 29
34 43 42 70 42 54 0 66 9 96 76 38 85 78 96 133 35 19 -21 19 -22 -7 -71 -31
-57 -32 -66 -14 -103 l12 -26 37 36 c21 20 40 35 42 32 5 -4 -13 -129 -30
-206 -10 -49 1 -40 31 24 22 49 25 67 21 130 -4 71 -3 74 25 94 25 17 34 19
69 9 29 -8 44 -19 53 -38 6 -15 26 -44 45 -65 24 -28 31 -44 26 -60 -10 -34
-25 -44 -83 -59 -30 -7 -58 -20 -62 -28 -12 -22 -49 -108 -49 -114 0 -3 -12
-31 -27 -63 -14 -32 -32 -73 -39 -91 -11 -31 -11 -34 13 -43 13 -5 26 -9 29
-9 3 0 18 -10 34 -21 19 -15 36 -20 52 -16 36 10 100 -3 94 -19 -3 -7 0 -11 7
-9 16 6 49 -24 64 -57 7 -16 21 -28 31 -28 21 0 52 -30 52 -50 0 -22 16 1 29
40 27 86 127 137 203 105 52 -21 64 -19 78 15 7 17 18 30 26 30 33 0 -20 71
-67 91 -17 6 -37 25 -45 41 -10 19 -21 28 -30 24 -23 -9 -16 15 11 40 14 13
25 26 25 30 0 4 8 16 17 26 16 18 14 21 -31 63 -26 25 -50 45 -53 45 -6 0 -72
55 -109 90 -12 11 -24 20 -27 20 -4 0 -33 19 -64 43 -72 54 -219 147 -231 147
-5 0 -15 7 -22 15 -7 8 -19 15 -26 15 -8 0 -37 15 -66 33 -56 35 -146 79 -188
92 -14 4 -30 11 -36 16 -16 13 -270 104 -359 129 -44 12 -100 28 -125 35 -53
16 -136 32 -235 46 -38 5 -89 14 -112 19 -49 11 -278 20 -340 13z m456 -115
c20 -7 42 -20 49 -28 40 -47 38 -129 -4 -180 -23 -27 -31 -30 -86 -30 -45 0
-66 5 -86 21 -81 63 -83 143 -4 201 41 30 77 34 131 16z m336 -153 c32 -31 32
-68 0 -89 -49 -32 -81 -16 -92 46 -10 64 46 90 92 43z m-222 -173 c13 -22 16
-36 9 -45 -6 -6 -15 -31 -22 -55 -6 -24 -20 -52 -31 -63 -18 -18 -23 -19 -42
-6 -19 13 -22 24 -22 92 0 69 2 79 24 96 33 27 61 20 84 -19z m1284 -341 c1
-1 9 -14 18 -31 23 -45 19 -85 -12 -119 -42 -45 -65 -47 -107 -10 -31 26 -36
37 -36 74 0 28 7 51 21 69 19 24 26 27 68 22 25 -2 47 -5 48 -5z m-165 -46 c7
-16 4 -36 -11 -81 -21 -57 -21 -60 -3 -83 10 -13 35 -30 56 -38 52 -18 66 -31
66 -62 0 -28 -12 -47 -41 -69 -13 -10 -23 -10 -43 -1 -14 7 -26 15 -26 18 0 3
-15 23 -34 44 -22 25 -45 40 -67 43 -47 8 -80 54 -68 96 13 45 55 113 89 141
34 29 66 26 82 -8z m248 -119 c0 -16 -24 -38 -33 -30 -7 7 14 44 25 44 5 0 8
-6 8 -14z m35 -47 c-3 -5 1 -6 9 -3 10 4 16 1 16 -9 0 -23 -31 -30 -45 -10 -9
13 -10 22 -3 30 11 14 32 7 23 -8z m-103 -31 c-7 -7 -12 -8 -12 -2 0 14 12 26
19 19 2 -3 -1 -11 -7 -17z m48 -17 c0 -5 -7 -12 -16 -15 -24 -9 -28 -7 -14 9
14 17 30 20 30 6z"/>
<path d="M3697 6148 c-6 -19 11 -48 29 -48 20 0 29 27 14 45 -15 18 -37 19
-43 3z"/>
<path d="M5107 5503 c-12 -11 -8 -23 8 -23 8 0 15 7 15 15 0 16 -12 20 -23 8z"/>
<path d="M2010 6320 c-15 -28 -2 -41 28 -29 15 6 22 15 20 26 -5 26 -35 27
-48 3z"/>
<path d="M1500 6120 c-13 -8 -12 -10 3 -10 9 0 17 5 17 10 0 12 -1 12 -20 0z"/>
<path d="M1450 6081 c-8 -9 -39 -47 -69 -85 -40 -51 -50 -70 -40 -77 17 -10
29 -2 22 16 -5 16 13 45 28 45 5 0 9 -7 9 -15 0 -24 25 -18 71 18 50 38 57 53
29 60 -14 3 -20 13 -20 31 0 30 -8 32 -30 7z"/>
<path d="M1540 6080 c-9 -16 -8 -21 5 -26 23 -9 47 4 43 23 -5 26 -35 28 -48
3z"/>
<path d="M1779 5960 c-13 -10 -21 -19 -17 -20 14 0 58 23 58 32 0 14 -16 9
-41 -12z"/>
<path d="M1715 5919 c-4 -6 -5 -13 -2 -16 7 -7 27 6 27 18 0 12 -17 12 -25 -2z"/>
<path d="M1625 5879 c-10 -15 3 -25 16 -12 7 7 7 13 1 17 -6 3 -14 1 -17 -5z"/>
<path d="M1658 5854 c-5 -4 -8 -15 -8 -25 0 -24 -34 -43 -48 -26 -5 6 -11 21
-13 31 -4 17 -6 18 -19 5 -8 -8 -27 -20 -42 -28 -32 -17 -74 -59 -66 -66 3 -3
18 -7 34 -8 16 -1 32 -6 35 -11 4 -4 16 -3 27 3 11 6 36 11 55 11 26 0 36 -5
45 -25 8 -17 16 -23 28 -18 15 5 14 9 -9 29 -28 24 -36 71 -16 91 6 6 9 19 7
28 -1 9 -6 13 -10 9z m-70 -76 c-4 -30 -48 -39 -48 -10 0 24 8 32 32 32 14 0
19 -6 16 -22z"/>
<path d="M1793 5835 c-8 -22 6 -33 17 -15 13 20 12 30 0 30 -6 0 -13 -7 -17
-15z"/>
<path d="M6260 5826 c-52 -13 -108 -28 -123 -35 -27 -10 -27 -12 -13 -33 9
-12 16 -33 16 -45 0 -12 8 -27 19 -32 23 -13 34 -40 23 -55 -5 -6 -12 -21 -15
-34 -5 -21 -2 -23 26 -20 31 3 32 2 30 -35 -1 -25 3 -37 12 -37 8 0 15 -10 17
-22 2 -13 13 -27 26 -33 24 -11 30 -40 9 -48 -17 -6 -32 3 -40 26 -4 10 -11
15 -17 12 -15 -9 -12 -31 5 -45 19 -15 20 -56 2 -63 -19 -7 -15 -42 7 -66 10
-11 16 -27 12 -36 -5 -13 0 -16 27 -13 23 2 31 8 29 19 -3 22 21 41 42 33 9
-3 16 -17 16 -30 0 -19 -5 -24 -25 -24 -20 0 -27 -6 -31 -30 -4 -16 -13 -30
-20 -30 -8 0 -22 -9 -31 -20 -10 -11 -22 -20 -28 -20 -6 0 -16 -10 -24 -22
-12 -20 -11 -24 13 -45 30 -26 28 -56 -4 -73 -24 -13 -19 -42 8 -55 28 -13 30
-55 3 -62 -38 -10 -33 -63 5 -63 8 0 17 -13 21 -30 4 -21 11 -30 24 -30 11 0
19 -4 19 -9 0 -5 3 -16 6 -24 3 -10 -3 -17 -20 -21 -20 -5 -26 -13 -26 -35 0
-25 3 -29 25 -26 21 2 25 -2 25 -26 0 -19 -5 -29 -15 -29 -21 0 -19 -8 18
-102 18 -46 42 -111 52 -145 18 -57 23 -63 47 -63 23 0 28 -4 28 -26 0 -21 4
-25 23 -22 19 3 21 8 19 36 -3 30 -1 33 17 27 18 -5 21 -2 22 27 2 32 2 32 9
-7 4 -22 8 264 9 637 l1 676 -72 126 c-56 96 -78 125 -93 125 -11 0 -63 -11
-115 -23z m30 -306 c0 -5 -4 -10 -10 -10 -5 0 -10 5 -10 10 0 6 5 10 10 10 6
0 10 -4 10 -10z m80 -159 c0 -5 -7 -14 -15 -21 -12 -10 -19 -10 -28 -1 -9 9
-9 14 3 21 19 12 40 13 40 1z m-65 -66 c0 -13 -8 -21 -23 -23 -26 -4 -42 25
-21 39 22 14 44 6 44 -16z m120 -6 c15 -29 15 -30 -2 -21 -10 5 -24 7 -30 5
-14 -5 -18 28 -6 40 12 13 23 7 38 -24z m105 -589 c0 -11 -4 -20 -10 -20 -5 0
-10 9 -10 20 0 11 5 20 10 20 6 0 10 -9 10 -20z m-176 -36 c22 -9 20 -41 -3
-47 -25 -6 -31 0 -31 30 0 24 7 27 34 17z m106 -8 c0 -3 -4 -8 -10 -11 -5 -3
-10 -1 -10 4 0 6 5 11 10 11 6 0 10 -2 10 -4z m-30 -65 c0 -13 -9 -21 -29 -26
-16 -3 -35 -13 -42 -21 -15 -19 -49 -18 -49 1 0 10 10 15 30 15 25 0 30 4 30
25 0 21 5 25 30 25 23 0 30 -5 30 -19z"/>
<path d="M4033 5808 c-9 -13 -35 -91 -30 -93 1 -1 24 -14 50 -29 27 -15 50
-26 52 -24 1 1 12 21 23 43 19 37 19 43 5 70 -9 17 -21 33 -27 37 -18 12 -63
9 -73 -4z"/>
<path d="M4447 5748 c-47 -63 -61 -101 -60 -161 1 -32 4 -61 7 -64 3 -3 18 2
33 12 27 18 27 18 5 26 -34 13 -31 78 7 118 33 35 39 37 66 17 18 -13 18 -16
3 -54 -10 -27 -12 -39 -4 -36 18 7 35 40 42 83 6 35 3 43 -21 65 -36 34 -49
33 -78 -6z"/>
<path d="M1495 5670 c-3 -5 1 -10 9 -10 8 0 18 5 21 10 3 6 -1 10 -9 10 -8 0
-18 -4 -21 -10z"/>
<path d="M5360 5525 c0 -9 10 -19 23 -24 28 -11 31 -8 17 18 -13 24 -40 28
-40 6z"/>
<path d="M1163 5506 c-16 -7 -21 -16 -17 -29 5 -15 2 -18 -14 -13 -25 8 -36
-8 -22 -33 5 -11 7 -27 4 -35 -7 -17 -44 -22 -44 -6 0 6 -7 10 -15 10 -20 0
-19 -17 1 -38 15 -14 15 -17 0 -27 -26 -19 -19 -47 25 -91 22 -22 41 -50 42
-61 1 -16 10 -23 38 -27 20 -3 42 -13 50 -22 7 -9 22 -14 36 -11 13 2 21 2 18
-1 -8 -8 26 -42 42 -42 23 0 15 17 -29 61 -34 34 -44 39 -46 26 -4 -20 -7 -20
-33 -7 -20 11 -27 50 -8 50 5 0 7 5 4 10 -4 6 -12 4 -21 -5 -19 -19 -25 -19
-50 -1 -15 12 -17 18 -8 33 6 10 21 19 33 21 31 5 29 48 -3 56 -41 10 -46 56
-5 56 15 0 19 7 19 35 0 37 18 85 32 85 4 0 8 5 8 10 0 12 -8 11 -37 -4z m-52
-192 c14 -13 16 -21 8 -35 -12 -23 -27 -24 -50 -3 -15 13 -16 20 -6 35 14 23
25 24 48 3z"/>
<path d="M5421 5481 c3 -8 25 -30 49 -50 27 -22 38 -28 29 -15 -19 29 -83 82
-78 65z"/>
<path d="M3590 5404 c-5 -13 -15 -24 -22 -24 -9 0 -8 -3 2 -10 12 -8 12 -12 2
-18 -9 -7 -8 -13 8 -27 16 -14 19 -26 15 -47 -6 -27 7 -39 20 -18 3 6 13 10
21 10 22 0 17 -48 -6 -62 -24 -15 -26 -28 -4 -28 10 0 14 -6 10 -15 -3 -9 0
-15 8 -15 7 0 16 14 20 30 4 21 11 30 25 30 30 0 38 -40 13 -60 -18 -15 -18
-19 -5 -43 7 -15 19 -27 25 -27 9 0 9 3 0 12 -19 19 -15 48 8 48 18 0 20 -4
14 -42 -6 -41 -5 -42 10 -23 15 20 15 20 16 -2 0 -13 5 -23 10 -23 6 0 10 4
10 9 0 4 10 19 23 33 43 47 136 153 155 177 l19 25 16 -30 c8 -16 23 -39 34
-50 l18 -22 43 38 44 37 -54 22 c-29 12 -60 25 -68 30 -9 5 -31 12 -50 16 -19
4 -41 11 -50 15 -19 10 -88 28 -170 45 -36 8 -84 18 -108 23 -40 9 -44 8 -52
-14z m58 -47 c4 -20 -25 -34 -40 -19 -15 15 -1 44 19 40 10 -2 19 -11 21 -21z
m120 -5 c3 -18 -2 -22 -22 -22 -19 0 -26 5 -26 19 0 36 43 38 48 3z m112 -6
c0 -3 -4 -8 -10 -11 -5 -3 -10 -1 -10 4 0 6 5 11 10 11 6 0 10 -2 10 -4z
m-163 -42 c3 -8 -1 -22 -9 -30 -13 -13 -17 -12 -32 5 -10 11 -15 25 -11 30 10
17 45 13 52 -5z m103 -9 c0 -8 -7 -15 -15 -15 -8 0 -15 7 -15 15 0 8 7 15 15
15 8 0 15 -7 15 -15z m110 7 c0 -13 -12 -22 -22 -16 -10 6 -1 24 13 24 5 0 9
-4 9 -8z m-172 -58 c1 -10 -2 -26 -8 -34 -16 -24 -43 16 -29 42 12 23 33 19
37 -8z m126 11 c14 -37 -20 -59 -45 -29 -11 14 -10 18 6 30 24 18 31 18 39 -1z
m-50 -80 c-4 -8 -10 -15 -15 -15 -5 0 -9 7 -9 15 0 8 7 15 15 15 9 0 12 -6 9
-15z"/>
<path d="M1301 5394 c-27 -34 -27 -34 11 -72 l31 -33 24 22 c12 13 23 25 23
29 0 4 -16 15 -35 26 -25 13 -33 23 -29 36 8 25 -1 22 -25 -8z"/>
<path d="M600 5240 c0 -11 5 -20 10 -20 6 0 10 9 10 20 0 11 -4 20 -10 20 -5
0 -10 -9 -10 -20z"/>
<path d="M6224 5180 c0 -11 6 -20 13 -20 7 0 13 9 13 20 0 11 -6 20 -13 20 -7
0 -13 -9 -13 -20z"/>
<path d="M5263 5148 c-13 -6 -23 -20 -23 -30 0 -16 3 -17 21 -6 12 7 30 18 40
24 36 21 2 31 -38 12z"/>
<path d="M424 5076 c-8 -22 3 -49 19 -43 6 2 12 14 12 27 0 27 -22 39 -31 16z"/>
<path d="M305 5070 c-8 -14 3 -30 21 -30 8 0 14 9 14 20 0 21 -24 28 -35 10z"/>
<path d="M4940 5065 c0 -8 2 -15 4 -15 2 0 6 7 10 15 3 8 1 15 -4 15 -6 0 -10
-7 -10 -15z"/>
<path d="M244 5016 c-8 -21 3 -36 27 -36 15 0 20 6 17 22 -4 27 -35 37 -44 14z"/>
<path d="M360 4999 c0 -5 5 -7 10 -4 6 3 10 8 10 11 0 2 -4 4 -10 4 -5 0 -10
-5 -10 -11z"/>
<path d="M312 4958 c-18 -18 -14 -38 8 -38 13 0 20 7 20 19 0 25 -13 34 -28
19z"/>
<path d="M446 4945 c4 -8 8 -15 10 -15 2 0 4 7 4 15 0 8 -4 15 -10 15 -5 0 -7
-7 -4 -15z"/>
<path d="M243 4903 c-21 -8 -15 -40 9 -47 27 -7 41 5 36 30 -3 19 -23 27 -45
17z"/>
<path d="M300 4833 c0 -5 4 -14 9 -22 11 -17 32 -5 24 14 -5 15 -33 21 -33 8z"/>
<path d="M137 4792 c-13 -3 -17 -11 -15 -30 2 -21 9 -28 30 -30 21 -3 27 -9
30 -30 4 -38 42 -38 46 1 3 23 0 27 -22 27 -21 0 -26 5 -26 24 0 28 -18 44
-43 38z"/>
<path d="M240 4767 c0 -27 19 -40 39 -27 20 12 8 45 -17 48 -18 3 -22 -1 -22
-21z"/>
<path d="M6207 4724 c-8 -9 15 -44 29 -44 13 0 25 35 16 44 -7 8 -37 8 -45 0z"/>
<path d="M307 4700 c-3 -13 0 -20 10 -20 10 0 13 6 9 16 -3 8 -2 12 4 9 6 -3
10 -1 10 4 0 19 -28 12 -33 -9z"/>
<path d="M244 4655 c-4 -9 -2 -21 4 -27 15 -15 44 -1 40 19 -4 23 -36 29 -44
8z"/>
<path d="M6156 4313 c5 -24 1 -36 -15 -52 -27 -27 -27 -27 8 -34 19 -4 35 -17
44 -33 9 -17 17 -23 21 -16 4 6 -7 44 -24 84 -36 83 -43 94 -34 51z"/>
<path d="M6534 4110 c0 -63 1 -89 3 -57 2 31 2 83 0 115 -2 31 -3 5 -3 -58z"/>
<path d="M345 4164 c-9 -21 -23 -63 -30 -92 -8 -29 -17 -57 -20 -62 -10 -16
-49 -204 -59 -285 -28 -216 -35 -293 -37 -378 -1 -54 1 -100 3 -103 12 -11 38
10 38 32 0 20 5 24 30 24 26 0 30 -4 30 -26 0 -19 5 -25 18 -22 25 5 28 44 3
51 -29 7 -27 43 4 63 37 24 30 33 -17 22 -38 -8 -43 -7 -65 18 -26 31 -26 30
-14 53 6 9 12 44 15 76 3 32 10 63 16 69 5 5 10 18 10 28 0 10 5 18 10 18 6 0
10 -6 10 -14 0 -13 20 -26 40 -26 4 0 10 9 13 21 4 15 -1 22 -19 29 -32 13
-32 40 1 40 14 0 25 -4 25 -10 0 -5 3 -10 8 -10 4 0 7 15 6 32 -1 25 -7 36
-27 46 -15 7 -34 27 -42 43 -14 27 -14 35 2 86 13 41 26 61 45 72 17 10 26 22
23 30 -3 8 1 22 10 31 15 17 11 80 -5 80 -4 0 -4 18 0 39 10 58 -5 73 -25 25z"/>
<path d="M6416 4143 c20 -76 24 -84 45 -78 14 5 22 -1 29 -21 6 -15 14 -24 17
-20 12 11 12 166 1 166 -5 0 -12 -9 -15 -20 -6 -21 -36 -35 -53 -25 -5 3 -10
15 -10 26 0 10 -6 19 -14 19 -11 0 -11 -8 0 -47z"/>
<path d="M6201 4128 c-12 -32 -35 -50 -54 -42 -11 4 -20 -5 -32 -30 -16 -33
-16 -36 2 -60 20 -28 38 -33 47 -13 5 10 7 10 12 0 3 -7 15 -13 25 -13 32 0
56 -17 63 -45 4 -14 11 -25 16 -25 14 0 12 44 -2 58 -7 7 -13 27 -14 45 -3 50
-24 124 -40 137 -11 10 -15 7 -23 -12z"/>
<path d="M5970 3977 c0 -41 2 -45 21 -40 17 5 20 2 17 -13 -2 -12 -12 -19 -26
-18 -18 0 -22 -5 -22 -27 0 -17 -8 -34 -20 -42 -19 -13 -19 -15 -4 -28 13 -11
17 -10 25 4 14 25 59 23 59 -3 0 -16 7 -20 35 -20 19 0 35 3 34 8 -2 25 -19
47 -35 47 -15 0 -19 8 -20 41 -2 40 -34 116 -54 129 -6 4 -10 -11 -10 -38z"/>
<path d="M6450 3984 c0 -17 6 -28 20 -31 21 -5 30 -53 10 -53 -12 0 -13 -47
-1 -54 4 -3 12 -46 15 -96 6 -68 11 -90 22 -90 16 0 19 -35 5 -45 -13 -7 -11
-176 2 -192 6 -8 6 -26 0 -50 -5 -21 -7 -49 -3 -63 3 -14 4 -61 2 -105 -2 -44
-5 -116 -7 -160 -2 -44 -6 -114 -10 -155 -5 -69 -4 -78 14 -95 l21 -18 0 599
c0 329 -4 593 -8 586 -6 -9 -14 -7 -30 8 -12 12 -22 25 -22 30 0 6 -7 10 -15
10 -9 0 -15 -10 -15 -26z m80 -120 c0 -31 -2 -35 -15 -24 -16 13 -20 42 -8 53
15 15 23 5 23 -29z m0 -116 c0 -23 -3 -29 -11 -21 -6 6 -8 20 -4 32 9 30 15
26 15 -11z"/>
<path d="M6230 3846 c0 -9 5 -16 10 -16 12 0 13 -37 1 -44 -16 -10 -41 5 -41
25 0 22 -6 23 -49 8 -34 -12 -32 -22 11 -43 17 -8 24 -23 28 -51 4 -34 8 -40
27 -37 28 4 37 -12 16 -29 -13 -11 -17 -11 -20 -1 -9 24 -22 11 -17 -16 4 -19
1 -32 -10 -41 -9 -8 -16 -23 -16 -35 0 -18 -9 -24 -53 -34 -29 -6 -65 -12 -80
-12 -15 0 -46 -5 -70 -12 -39 -10 -43 -14 -39 -36 4 -20 2 -24 -12 -19 -10 4
-21 -2 -32 -19 -20 -30 -11 -43 14 -21 28 26 52 21 65 -13 9 -23 17 -30 39
-30 25 0 28 3 22 25 -4 16 -2 25 6 25 6 0 29 18 51 40 36 37 44 40 93 40 51 0
54 -2 94 -49 29 -35 39 -54 35 -70 -5 -18 -1 -21 26 -21 28 0 31 3 31 31 0 22
-5 32 -20 36 -26 7 -25 19 1 26 20 5 21 10 15 49 -4 24 -9 69 -11 101 -3 31
-9 66 -14 76 -6 10 -8 21 -4 24 6 7 -16 128 -26 138 -3 4 -21 10 -38 14 -26 5
-33 3 -33 -9z m68 -88 c-3 -7 -11 -13 -18 -13 -7 0 -15 6 -17 13 -3 7 4 12 17
12 13 0 20 -5 18 -12z m10 -135 c-2 -10 -12 -18 -23 -18 -11 0 -21 8 -23 18
-3 13 3 17 23 17 20 0 26 -4 23 -17z m-63 -23 c11 -18 -6 -50 -25 -50 -24 0
-33 15 -25 40 7 21 39 27 50 10z"/>
<path d="M5910 3700 c0 -5 6 -10 13 -10 8 0 22 -16 33 -35 21 -39 23 -40 49
-22 21 16 12 37 -15 37 -11 0 -24 9 -30 20 -11 20 -50 28 -50 10z"/>
<path d="M6123 3364 c-9 -24 5 -44 31 -44 27 0 56 23 56 45 0 19 -80 18 -87
-1z"/>
<path d="M5984 3264 c-18 -27 -18 -27 14 -54 32 -27 86 -37 97 -19 4 5 2 9 -4
9 -5 0 -16 19 -23 43 -12 33 -20 43 -41 45 -19 2 -30 -4 -43 -24z"/>
<path d="M221 3231 c-23 -18 -23 -19 -17 -147 4 -71 14 -174 23 -229 l16 -100
76 -22 c42 -12 83 -24 91 -27 13 -6 15 5 14 72 -1 43 -6 87 -12 98 -6 12 -8
31 -5 44 4 15 1 26 -11 32 -9 5 -16 20 -16 33 0 28 -27 35 -36 10 -9 -22 -57
-18 -83 6 -18 17 -21 28 -17 53 4 18 1 46 -5 64 -13 37 4 80 38 97 17 9 20 14
11 23 -17 17 -39 14 -67 -7z"/>
<path d="M6352 3115 c-1 -12 -6 -25 -10 -30 -5 -6 -17 -32 -26 -58 -17 -46
-17 -49 0 -68 23 -26 30 -24 29 9 -1 15 3 35 7 45 5 10 7 41 5 70 -2 29 -4 43
-5 32z"/>
<path d="M5624 3041 c3 -5 -1 -14 -9 -21 -17 -14 -20 -75 -5 -85 6 -3 10 2 10
12 1 16 3 15 20 -6 24 -28 26 -10 3 29 -15 27 -15 30 1 54 16 25 16 26 -4 26
-12 0 -19 -4 -16 -9z"/>
<path d="M5786 3005 c4 -8 11 -15 16 -15 6 0 5 6 -2 15 -7 8 -14 15 -16 15 -2
0 -1 -7 2 -15z"/>
<path d="M240 2732 c0 -4 4 -12 8 -17 5 -6 14 -46 21 -90 7 -44 16 -93 21
-110 5 -16 19 -64 31 -105 25 -87 109 -321 119 -333 3 -4 21 13 39 38 26 36
30 49 21 60 -6 8 -24 54 -39 102 -23 71 -32 89 -49 91 -22 3 -62 46 -62 65 0
5 15 24 34 41 l34 32 -30 40 c-37 48 -98 139 -116 171 -13 22 -32 31 -32 15z"/>
<path d="M5180 2713 c0 -10 -3 -29 -7 -42 -4 -17 -2 -22 7 -19 14 4 21 78 8
78 -5 0 -8 -8 -8 -17z"/>
<path d="M5580 2686 c0 -8 5 -16 12 -18 8 -3 9 -12 0 -36 -6 -19 -7 -32 -1
-32 5 0 9 8 9 18 0 9 7 26 15 36 22 29 18 46 -10 46 -15 0 -25 -6 -25 -14z"/>
<path d="M5730 2638 c-8 -35 -15 -67 -16 -73 -2 -5 -9 -25 -16 -43 -12 -32
-12 -35 19 -62 17 -16 58 -36 90 -46 32 -9 75 -23 96 -30 20 -8 48 -14 62 -14
24 0 24 0 10 46 -7 25 -21 54 -29 63 -10 11 -16 36 -16 63 0 48 -26 138 -44
150 -6 4 -40 8 -76 8 l-66 0 -14 -62z"/>
<path d="M6206 2618 c6 -70 4 -75 -25 -119 -17 -25 -42 -51 -55 -57 -35 -16
-37 -51 -4 -85 16 -16 28 -39 28 -51 0 -37 -21 -90 -42 -108 -31 -28 -60 -22
-102 21 -21 22 -57 46 -80 54 -73 26 -260 84 -303 94 l-43 10 7 -26 c4 -14 7
-48 7 -74 1 -40 -3 -52 -24 -69 -17 -13 -33 -18 -52 -14 -35 7 -37 -7 -3 -22
15 -7 25 -20 25 -32 0 -16 -7 -20 -30 -20 -23 0 -28 -4 -23 -16 5 -13 0 -14
-29 -9 -30 6 -36 4 -40 -13 -5 -19 0 -20 84 -24 73 -2 92 -6 103 -21 8 -11 11
-26 8 -35 -25 -69 -184 -252 -219 -252 -22 0 -58 26 -65 47 -2 7 -9 1 -16 -13
-10 -21 -9 -25 2 -21 15 6 49 -26 38 -36 -13 -14 -35 -7 -29 9 4 10 2 14 -6
11 -7 -2 -12 -10 -11 -16 2 -6 -2 -11 -9 -11 -9 0 -9 -3 0 -12 7 -7 12 -25 12
-40 0 -17 5 -28 13 -28 8 0 22 -9 31 -19 16 -18 16 -21 -3 -59 -20 -39 -20
-40 -1 -45 22 -6 28 -43 8 -49 -6 -2 -8 -10 -4 -16 5 -9 13 -9 26 -2 33 18 43
12 38 -22 -3 -20 2 -43 13 -62 10 -17 21 -54 24 -82 8 -60 -18 -129 -62 -164
-16 -11 -65 -58 -111 -103 -71 -70 -80 -82 -65 -90 10 -5 24 -17 31 -25 11
-15 14 -14 34 6 l22 22 -22 0 c-17 0 -22 6 -22 25 0 31 23 33 44 3 16 -22 16
-22 98 57 44 44 95 94 112 110 112 108 319 385 425 570 61 106 151 289 151
307 0 7 6 22 13 33 15 24 48 106 77 193 11 35 24 71 29 80 5 9 14 37 21 62 6
25 18 68 27 95 19 62 45 173 47 200 1 17 -6 20 -51 23 l-53 3 6 -73z m-472
-381 c46 -34 6 -107 -58 -107 -41 0 -56 16 -56 56 0 54 69 84 114 51z m-139
-137 c3 -5 -3 -10 -14 -10 -12 0 -21 5 -21 10 0 6 6 10 14 10 8 0 18 -4 21
-10z m100 -20 c3 -5 1 -10 -4 -10 -6 0 -11 5 -11 10 0 6 2 10 4 10 3 0 8 -4
11 -10z m89 -63 c6 -7 30 -26 54 -42 37 -24 47 -27 63 -17 31 20 53 14 67 -17
11 -26 11 -35 -4 -63 -24 -49 -65 -88 -90 -88 -17 0 -28 12 -47 53 -14 31 -35
58 -51 66 -24 13 -29 13 -54 -6 -56 -42 -26 -111 59 -133 97 -24 107 -40 66
-101 -45 -67 -95 -75 -123 -20 -20 39 -67 81 -91 81 -25 0 -63 -32 -63 -53 0
-14 45 -58 103 -101 32 -23 37 -33 37 -66 0 -33 -5 -41 -34 -59 -40 -25 -62
-20 -69 18 -6 29 -62 91 -83 91 -19 0 -65 41 -74 66 -13 34 2 66 63 138 70 80
137 185 137 214 0 48 101 78 134 39z m-364 -453 c11 -12 11 -18 -2 -30 -18
-18 -48 -8 -48 15 0 33 28 42 50 15z m54 -85 c-7 -12 -31 -11 -39 1 -4 6 -1
18 6 26 12 14 14 14 26 -2 7 -9 10 -21 7 -25z m61 -49 c4 -6 22 -17 41 -25 19
-8 34 -20 34 -27 0 -24 -85 -112 -101 -106 -9 3 -21 30 -28 60 -12 49 -12 58
4 81 18 28 39 35 50 17z m-185 -415 c0 -8 -4 -15 -10 -15 -5 0 -10 7 -10 15 0
8 5 15 10 15 6 0 10 -7 10 -15z"/>
<path d="M6470 2663 c0 -56 -88 -377 -157 -568 -63 -179 -255 -546 -350 -671
-12 -17 -23 -34 -23 -38 0 -14 -174 -228 -262 -323 -50 -54 -59 -73 -33 -73 8
0 15 5 15 10 0 15 42 12 64 -5 19 -14 52 -70 36 -60 -6 4 -10 0 -10 -8 0 -8 7
-18 16 -21 23 -9 36 -7 29 4 -4 6 5 10 19 10 21 0 26 -5 26 -25 0 -30 20 -33
43 -7 24 26 21 42 -8 42 -30 0 -32 10 -5 33 26 22 30 21 30 -2 0 -29 18 -36
41 -15 24 22 24 29 -1 54 -22 22 -19 40 6 40 8 0 14 -10 14 -25 0 -30 20 -33
43 -7 19 21 6 42 -24 42 -12 0 -16 6 -12 20 3 11 9 23 13 25 14 9 38 -6 43
-26 7 -28 19 -24 72 26 39 38 45 48 35 60 -7 8 -19 15 -26 15 -8 0 -14 3 -14
6 0 7 30 38 33 33 1 -2 7 -13 13 -24 6 -11 21 -21 33 -23 15 -2 21 -10 21 -28
0 -14 -6 -24 -14 -24 -8 0 -17 -11 -20 -24 -3 -13 -8 -31 -12 -39 -3 -9 3 -16
15 -20 29 -7 28 -39 -1 -35 -14 2 -23 -2 -22 -9 1 -7 2 -20 3 -28 0 -9 12 -20
26 -25 18 -7 25 -17 25 -36 0 -18 -4 -25 -14 -21 -17 7 -61 -37 -51 -52 3 -6
-1 -11 -9 -11 -18 0 -22 -6 -30 -50 -6 -35 -5 -36 51 -68 32 -18 85 -50 118
-71 33 -21 88 -53 123 -71 34 -19 62 -37 62 -40 0 -4 -35 -10 -77 -14 -238
-21 -336 -34 -344 -47 -15 -22 -3 -101 17 -116 24 -17 11 -28 -15 -12 -11 7
-22 11 -25 8 -3 -2 -14 -49 -26 -104 -20 -91 -24 -114 -28 -167 -3 -30 -27
-20 -40 16 -10 27 -17 33 -32 29 -15 -4 -20 0 -20 15 0 25 -28 55 -45 49 -15
-6 -16 25 -1 35 19 13 38 9 33 -6 -6 -16 18 -54 28 -45 8 9 -5 59 -16 59 -5 0
-9 8 -9 18 0 10 -7 27 -15 38 -14 18 -15 18 -45 -14 -32 -33 -50 -34 -50 -2 0
13 5 17 20 13 14 -4 23 2 31 21 9 20 15 23 22 14 5 -8 6 -2 2 17 -9 41 -28 85
-38 85 -5 0 -5 -5 -2 -10 3 -6 -1 -10 -9 -10 -20 0 -21 -16 -1 -27 12 -7 8
-11 -16 -20 -26 -10 -29 -10 -19 3 14 16 -2 44 -26 44 -24 0 -26 -20 -4 -55
18 -30 19 -35 6 -35 -9 0 -16 6 -16 14 0 19 -46 29 -68 15 -15 -10 -28 -7 -68
12 -27 13 -53 29 -59 35 -19 21 -75 37 -112 31 l-36 -6 34 35 c28 29 31 36 19
44 -13 8 -11 13 12 32 14 13 29 33 33 45 3 12 14 25 25 28 33 11 37 55 4 55
-8 0 -22 15 -30 32 -8 18 -21 43 -30 56 -11 14 -12 22 -5 22 7 0 17 14 22 30
12 33 39 40 60 14 11 -14 10 -18 -6 -30 -10 -8 -25 -14 -32 -14 -18 0 -16 -37
3 -44 26 -10 34 -7 34 13 0 30 24 45 49 29 28 -17 23 -40 -9 -48 -18 -4 -25
-13 -25 -30 0 -36 32 -39 46 -3 5 15 13 30 17 33 4 3 13 17 19 33 10 22 10 27
-1 27 -14 0 -26 21 -26 46 0 8 6 14 14 14 9 0 12 7 9 20 -6 23 -25 39 -22 19
5 -42 -16 -52 -45 -23 -22 21 -20 29 9 42 14 6 25 18 25 27 0 16 -14 6 -91
-67 -22 -20 -53 -47 -70 -60 -17 -12 -60 -47 -96 -77 -36 -30 -122 -91 -191
-137 -70 -46 -132 -87 -138 -91 -37 -28 -121 -73 -293 -160 -74 -38 -139 -77
-145 -87 -6 -11 -19 -28 -29 -38 -24 -25 -37 -62 -37 -103 0 -28 -6 -37 -30
-50 -16 -9 -30 -18 -30 -20 0 -3 484 -5 1075 -5 l1075 0 0 1340 0 1340 -35 0
c-27 0 -35 -4 -35 -17z m-190 -1543 c0 -5 -4 -10 -10 -10 -5 0 -10 5 -10 10 0
6 5 10 10 10 6 0 10 -4 10 -10z m-49 -166 c12 -14 11 -16 -5 -13 -11 2 -21 10
-24 17 -5 17 13 15 29 -4z m-811 -334 c0 -5 -5 -10 -11 -10 -5 0 -7 5 -4 10 3
6 8 10 11 10 2 0 4 -4 4 -10z m575 -480 c3 -5 1 -10 -4 -10 -6 0 -11 5 -11 10
0 6 2 10 4 10 3 0 8 -4 11 -10z m-15 -30 c0 -5 -4 -10 -10 -10 -5 0 -10 5 -10
10 0 6 5 10 10 10 6 0 10 -4 10 -10z"/>
<path d="M5425 1950 c-11 -17 5 -32 21 -19 8 6 14 15 14 20 0 12 -27 11 -35
-1z"/>
<path d="M558 1883 c-10 -2 -18 -9 -18 -15 0 -16 67 -133 85 -148 8 -7 13 -16
10 -20 -3 -5 0 -12 6 -16 6 -3 15 -1 19 6 11 17 44 8 48 -13 3 -12 -4 -20 -17
-24 -25 -6 -26 -13 -6 -39 14 -19 15 -19 21 4 3 12 9 22 13 22 3 0 19 17 35
37 27 33 27 35 6 20 -27 -19 -50 -8 -50 26 0 21 -31 54 -72 76 -26 13 -48 49
-48 76 0 15 -2 16 -32 8z"/>
<path d="M706 1812 c-10 -17 7 -52 25 -52 24 0 26 45 3 54 -20 8 -22 8 -28 -2z"/>
<path d="M720 1570 c0 -18 20 -50 31 -50 18 0 5 55 -13 58 -10 2 -18 -2 -18
-8z"/>
<path d="M5218 1574 c-16 -16 31 -77 68 -88 16 -5 23 -2 27 14 4 15 1 21 -11
19 -32 -3 -40 1 -59 31 -11 17 -22 28 -25 24z"/>
<path d="M772 1493 c2 -10 13 -19 26 -21 24 -4 29 7 10 26 -18 18 -40 15 -36
-5z"/>
<path d="M837 1453 c-10 -9 -9 -53 1 -53 4 0 14 5 22 10 13 9 13 10 0 10 -12
0 -12 2 -2 9 10 6 10 10 -1 19 -8 7 -17 9 -20 5z"/>
<path d="M5197 1318 c5 -24 2 -30 -16 -35 -14 -3 -20 -11 -17 -22 14 -51 16
-90 4 -97 -6 -4 -14 -2 -16 4 -4 12 -32 17 -32 7 0 -4 7 -19 15 -35 19 -37 65
-43 65 -10 0 17 6 20 27 18 28 -3 32 4 50 93 6 34 -30 95 -62 101 -22 5 -23 2
-18 -24z m46 -50 c8 -12 7 -21 -2 -32 -22 -27 -58 4 -44 39 7 20 32 16 46 -7z"/>
<path d="M4480 1189 c0 -5 5 -7 10 -4 6 3 10 8 10 11 0 2 -4 4 -10 4 -5 0 -10
-5 -10 -11z"/>
<path d="M4949 1114 c-1 -5 -1 -17 0 -26 2 -20 -25 -25 -32 -5 -3 9 -10 7 -25
-7 -17 -15 -25 -16 -36 -7 -12 10 -17 8 -27 -11 -8 -13 -13 -26 -14 -30 0 -3
-3 -9 -7 -13 -4 -4 0 -18 9 -31 12 -19 13 -27 4 -38 -10 -11 -4 -19 30 -38 23
-12 47 -31 53 -40 16 -26 -4 -69 -44 -96 -19 -12 -41 -36 -48 -52 -6 -17 -17
-30 -22 -30 -6 0 -10 -8 -10 -19 0 -10 -6 -24 -13 -30 -8 -6 -22 -30 -33 -53
-10 -24 -23 -46 -28 -50 -6 -4 -7 -10 -4 -14 4 -3 14 1 23 10 9 9 22 16 30 16
16 0 154 78 220 124 28 20 79 56 115 81 36 24 81 58 100 75 31 26 33 31 18 40
-10 6 -14 18 -11 30 7 27 0 25 -49 -10 -22 -16 -51 -30 -63 -30 -34 0 -57 32
-53 77 3 36 4 38 36 35 35 -4 41 8 17 28 -9 7 -14 19 -11 27 3 8 -2 13 -15 13
-10 0 -40 19 -64 41 -25 23 -46 38 -46 33z m56 -94 c0 -7 -6 -15 -12 -17 -8
-3 -13 4 -13 17 0 13 5 20 13 18 6 -3 12 -11 12 -18z m-127 -8 c2 -7 -3 -12
-12 -12 -9 0 -16 7 -16 16 0 17 22 14 28 -4z"/>
<path d="M5670 974 c0 -8 32 -33 43 -34 4 0 7 9 7 20 0 15 -7 20 -25 20 -14 0
-25 -3 -25 -6z"/>
<path d="M6116 905 c-8 -23 -8 -35 3 -35 13 0 23 32 13 42 -6 6 -12 3 -16 -7z"/>
<path d="M5560 620 c-8 -5 -12 -11 -9 -14 2 -3 11 -1 19 4 8 5 12 11 9 14 -2
3 -11 1 -19 -4z"/>
<path d="M5495 560 c-3 -5 -2 -10 4 -10 5 0 13 5 16 10 3 6 2 10 -4 10 -5 0
-13 -4 -16 -10z"/>
<path d="M5628 403 c7 -3 16 -2 19 1 4 3 -2 6 -13 5 -11 0 -14 -3 -6 -6z"/>
<path d="M5557 373 c-16 -15 -6 -33 18 -33 18 0 25 5 25 20 0 20 -28 28 -43
13z"/>
<path d="M1720 300 c0 -15 5 -20 18 -18 9 2 17 10 17 18 0 8 -8 16 -17 18 -13
2 -18 -3 -18 -18z"/>
<path d="M1842 303 c2 -10 13 -19 26 -21 24 -4 29 7 10 26 -18 18 -40 15 -36
-5z"/>
<path d="M2900 305 c0 -2 9 -9 20 -15 16 -9 20 -8 20 5 0 8 -9 15 -20 15 -11
0 -20 -2 -20 -5z"/>
<path d="M1897 273 c-14 -13 -6 -43 13 -53 12 -6 20 -21 20 -36 0 -17 -7 -28
-20 -31 -14 -4 -20 -14 -20 -34 0 -24 -4 -29 -25 -29 -32 0 -41 -21 -24 -60
l14 -30 595 0 c552 1 696 8 475 24 -49 4 -129 15 -178 25 -48 10 -98 16 -111
14 -13 -3 -34 2 -47 10 -13 8 -56 20 -96 26 -40 7 -77 19 -83 26 -6 7 -19 11
-29 8 -10 -2 -52 8 -92 22 -41 15 -87 27 -104 27 -16 -1 -39 5 -52 13 -12 8
-34 15 -48 15 -18 0 -28 7 -34 23 -7 18 -17 24 -45 25 -26 1 -36 -3 -36 -13 0
-23 -16 -18 -28 10 -11 24 -31 32 -45 18z m156 -75 c7 -21 -4 -38 -24 -38 -14
0 -19 7 -19 25 0 18 5 25 19 25 11 0 21 -6 24 -12z m-58 -69 c8 -25 3 -32 -23
-27 -16 2 -18 7 -11 26 10 28 26 28 34 1z"/>
<path d="M1784 255 c-7 -18 3 -35 21 -35 18 0 26 15 19 34 -8 20 -33 21 -40 1z"/>
<path d="M2615 261 c-8 -15 3 -31 21 -31 9 0 14 7 12 17 -4 20 -24 28 -33 14z"/>
<path d="M2712 250 c-17 -28 -16 -30 21 -30 17 0 40 -7 50 -14 11 -9 33 -12
61 -9 26 3 46 1 50 -6 4 -6 18 -11 32 -11 29 0 33 26 4 35 -11 3 -28 17 -39
31 -24 31 -40 30 -67 -3 l-21 -27 -23 27 c-28 32 -51 34 -68 7z"/>
<path d="M2960 241 c0 -12 6 -21 15 -21 8 0 15 4 15 9 0 5 -7 14 -15 21 -13
10 -15 9 -15 -9z"/>
<path d="M3297 234 c-7 -8 -52 -11 -179 -13 l-108 -1 0 -25 c0 -20 5 -25 25
-25 14 0 28 7 31 15 9 23 54 19 54 -5 0 -19 7 -20 144 -20 147 0 157 2 163 39
2 17 24 32 35 25 4 -3 8 0 8 5 0 15 -6 14 -41 -5 -28 -14 -35 -14 -77 0 -53
19 -47 17 -55 10z m-67 -54 c0 -5 -7 -10 -15 -10 -8 0 -15 5 -15 10 0 6 7 10
15 10 8 0 15 -4 15 -10z"/>
<path d="M1840 205 c-17 -20 -6 -45 20 -45 17 0 21 5 18 27 -4 31 -20 40 -38
18z"/>
<path d="M3485 198 c10 -30 9 -30 29 -22 19 7 13 19 -16 35 -18 10 -19 8 -13
-13z"/>
<path d="M1710 186 c0 -30 13 -40 40 -31 13 4 20 15 20 31 0 20 -5 24 -30 24
-25 0 -30 -4 -30 -24z"/>
<path d="M1770 126 c0 -34 18 -42 42 -18 24 24 16 42 -18 42 -19 0 -24 -5 -24
-24z"/>
<path d="M2608 123 c7 -3 16 -2 19 1 4 3 -2 6 -13 5 -11 0 -14 -3 -6 -6z"/>
<path d="M3960 70 c-8 -5 -31 -10 -50 -10 -20 0 -61 -7 -92 -15 -63 -16 -135
-26 -220 -29 -32 -1 -61 -5 -65 -9 -3 -4 114 -7 262 -7 243 0 269 2 281 18 20
26 17 32 -16 26 -26 -6 -30 -4 -30 15 0 16 -6 21 -27 21 -16 0 -35 -5 -43 -10z"/>
<path d="M249 14 c-9 -11 -6 -14 20 -14 34 0 42 15 11 23 -10 3 -24 -1 -31 -9z"/>
<path d="M3073 3 c9 -2 25 -2 35 0 9 3 1 5 -18 5 -19 0 -27 -2 -17 -5z"/>
</g>
</svg>
